<svg version="1.2" xmlns="http://www.w3.org/2000/svg" viewBox="0 0 760 432" width="760" height="432">
	<title>Flag_of_Aran</title>
	<style>
		.s0 { fill: #d3a034 } 
		.s1 { fill: #000000 } 
		.s2 { fill: #13bde5 } 
		.s3 { fill: #161616 } 
		.s4 { fill: #e2c377 } 
	</style>
	<path class="s0" d="m459.1 103.3l-42.7 160-1.6 5.9c-2.7-0.8-5.4-1.6-8.4-2.3l44.3-165.9q2 0.6 4.2 1.2c1.4 0.4 2.7 0.7 4.2 1.1z"/>
	<path class="s0" d="m423.2 87.4l-23 175.3-0.4 2.9c-2.9-0.5-5.9-0.9-8.6-1.1l24-183.3q1 0.8 1.9 1.6 1 0.8 2 1.6 1 0.8 2 1.5 1.1 0.8 2.1 1.5z"/>
	<path class="s0" d="m499.8 103.9l-67 162.4-3.5 8.5q-1.3-0.7-2.7-1.3h-0.2c-1.8-0.8-3.5-1.5-5.2-2.1l68.6-166.1q1.2-0.1 2.5-0.2 1.3-0.2 2.5-0.4 1.3-0.1 2.5-0.3 1.3-0.3 2.5-0.5z"/>
	<path class="s0" d="m562.8 67.4q-0.7 1.8-1.4 3.6-0.6 1.8-1.2 3.7-0.6 1.8-1.2 3.7-0.5 1.8-0.9 3.7l-115.1 200c-2.5-1.6-5.1-3-7.6-4.3l115.2-200.2q1.4-1.3 2.7-2.7 1.3-1.4 2.6-2.8 1.3-1.4 2.5-2.9 1.2-1.5 2.4-3z"/>
	<path class="s0" d="m564.5 148.7l-106.2 139-2.8 3.6q-0.8-0.8-1.6-1.5-0.9-0.6-1.8-1.3-0.8-0.7-1.7-1.3-0.9-0.7-1.8-1.3l112.1-146.6q0.4 1.2 0.9 2.4 0.4 1.2 0.9 2.3 0.5 1.2 1 2.4 0.5 1.1 1 2.3z"/>
	<path class="s0" d="m587.8 180.5l-120.3 120.7-0.7 0.7q-2.8-3.1-6.1-6.2l121-121.4q1.4 1.6 3 3.1c1 1.1 2.1 2.2 3.1 3.1z"/>
	<path class="s0" d="m622.8 201.4l-146.2 112.5c-1.8-2.4-3.6-4.8-5.3-6.8l142-109.5q4.7 2.2 9.5 3.8z"/>
	<path class="s0" d="m660.7 311.9l-165.2 44.4c-0.6-2.7-1.3-5.4-2.3-8.4l165.3-44.5q0.5 2.2 1 4.2c0.4 1.4 0.8 2.9 1.2 4.3z"/>
	<path class="s0" d="m680.6 347.6l-182.6 24.1c-0.3-2.9-0.7-5.8-1.2-8.7l177.6-23.5q0.8 1.1 1.5 2.1 0.7 1 1.5 2 0.8 1 1.6 2 0.8 1 1.6 2z"/>
	<path class="s0" d="m695.5 201.4q-1.5 1.2-3 2.4-1.4 1.3-2.8 2.5-1.5 1.3-2.8 2.6-1.4 1.4-2.7 2.8l-199.4 115.6c-1.5-2.8-2.9-5.3-4.4-7.7l199.2-115.4q1.9-0.5 3.8-1 1.8-0.5 3.7-1.2 1.8-0.6 3.6-1.2 1.8-0.7 3.6-1.4z"/>
	<path class="s0" d="m658 262.7q-0.3 1.3-0.5 2.6-0.2 1.2-0.4 2.5-0.2 1.2-0.3 2.5-0.2 1.3-0.3 2.5l-165.4 68.6c-1-2.7-2.2-5.4-3.3-7.9z"/>
	<path class="s0" d="m743.8 381.6v2.4q-1.9 0.3-3.8 0.6-2 0.3-3.8 0.7-1.9 0.4-3.8 0.9-1.9 0.4-3.7 1h-230.3q0.2-4.2 0-8.7h230.3q1.8 0.5 3.7 1 1.9 0.5 3.8 0.9 1.9 0.3 3.8 0.7 1.9 0.3 3.8 0.5z"/>
	<path class="s1" d="m13.8 403.2v13.6h732.4v-13.6zm729.9 11.2h-727.5v-8.8h727.5z"/>
	<path fill-rule="evenodd" class="s2" d="m16.2 405.6h727.6v8.8h-727.6z"/>
	<path class="s3" d=""/>
	<path fill-rule="evenodd" class="s1" d="m279.7 387.2h33 0.4 0.2-33.6z"/>
	<path class="s1" d="m744.1 379.2q-1.9-0.3-3.7-0.6-1.9-0.3-3.7-0.7-1.9-0.4-3.7-0.8-1.8-0.5-3.6-1h-231.1v-0.1q0-0.9-0.1-1.8l187.5-24.8-2.8-3.4q-0.8-0.9-1.6-1.9-0.8-0.9-1.5-1.9-0.8-1-1.5-2-0.7-1-1.4-2l-0.9-1.2-179.6 23.7q-0.1-0.9-0.3-1.8 0 0 0 0 0 0 0 0-0.1-0.1-0.1-0.1 0 0 0 0l168.2-45.2-0.7-2.4c-0.4-1.4-0.9-2.9-1.2-4.2q-0.5-2-1-4.1l-0.5-2.4-168.2 45.3v-0.1c-0.2-0.6-0.4-1.1-0.6-1.7q0 0 0-0.1l167.2-69.5 0.1-1.4q0.1-1.3 0.2-2.5 0.2-1.2 0.4-2.5 0.1-1.2 0.4-2.4 0.2-1.2 0.4-2.5l0.9-4.4-174.8 72.7q-0.4-0.9-0.8-1.7 0 0 0-0.1l200.1-115.9 0.3-0.3q1.2-1.4 2.6-2.7 1.3-1.3 2.7-2.5 1.4-1.3 2.8-2.4 1.4-1.2 2.9-2.4l1.7-1.3-3.3-5.7-2 0.8q-1.7 0.8-3.5 1.4-1.8 0.7-3.6 1.3-1.8 0.6-3.6 1.1-1.8 0.6-3.6 1h-0.4l-199.9 115.8q0 0 0-0.1l-1-1.5q0 0-0.1 0l150-115.5-4.3-1.5q-1.1-0.3-2.3-0.8-1.2-0.4-2.3-0.9-1.2-0.4-2.3-0.9-1.2-0.5-2.3-1l-1.3-0.6-143.4 110.4q0-0.1 0-0.1c-0.5-0.5-0.9-1-1.3-1.4v-0.1l122.8-123.2-1.8-1.7-3.1-3.1q-1.5-1.5-2.9-3.1l-1.7-1.8-122.9 123.4q-0.1-0.2-0.3-0.4-0.2-0.2-0.4-0.3-0.1-0.2-0.3-0.3-0.2-0.2-0.4-0.3l-0.1-0.1 110-143.9-0.6-1.3c-1.3-3-2.6-6.1-3.7-9.2l-1.5-4.2-114.9 150.3c0 0 0 0 0 0-0.6-0.4-1.1-0.7-1.6-1.1l115.3-200.5v-0.3q0.5-1.9 1-3.7 0.5-1.8 1.1-3.6 0.5-1.8 1.2-3.6 0.6-1.8 1.4-3.5l0.8-2-5.9-3.2-1.3 1.7q-1.1 1.5-2.3 3-1.2 1.4-2.5 2.8-1.2 1.4-2.5 2.7-1.3 1.4-2.7 2.7l-0.2 0.2-115.3 200.5-0.1-0.1q-0.8-0.4-1.7-0.8 0 0 0 0l72.1-174.9-4.3 0.8c-3.1 0.6-6.3 1.1-9.8 1.4h-1.5l-69.1 167.5q-0.2-0.1-0.4-0.2-0.2-0.1-0.5-0.2-0.2 0-0.4-0.1-0.2-0.1-0.5-0.1c0 0 0-0.1-0.1-0.1l45-168.3-2.4-0.6c-1.2-0.3-2.4-0.6-3.5-0.9l-0.7-0.1q-2.1-0.6-4.1-1.2l-2.4-0.8-44.9 168.4-1.9-0.4q0 0 0 0 0 0 0 0 0 0 0 0 0 0 0 0l23.5-179.7-1.2-0.9q-1-0.7-2-1.4-1-0.7-1.9-1.5-1-0.8-2-1.5-0.9-0.8-1.9-1.6l-3.3-3-24.6 187.8h-0.2l-1.8-0.1v-231.9q-0.6-1.8-1-3.7-0.5-1.8-0.9-3.7-0.4-1.8-0.7-3.7-0.3-1.9-0.6-3.8l-0.3-2.1h-6.4l-0.3 2.1q-0.3 1.9-0.6 3.8-0.3 1.9-0.7 3.7-0.4 1.9-0.9 3.7-0.4 1.9-1 3.7v231.9l-1.8 0.1h-0.2l-24.6-187.8-3.3 3q-1 0.8-1.9 1.6-1 0.7-2 1.5-0.9 0.8-1.9 1.5-1 0.7-2 1.4l-1.2 0.9 23.5 179.7q0 0 0 0 0 0 0 0 0 0 0 0 0 0 0 0l-1.9 0.4-44.9-168.4-2.4 0.8q-2 0.6-4.1 1.2l-0.7 0.1c-1.1 0.3-2.3 0.6-3.5 0.9l-2.4 0.6 45 168.3c-0.1 0-0.1 0.1-0.1 0.1q-0.3 0-0.5 0.1-0.2 0.1-0.4 0.1-0.3 0.1-0.5 0.2-0.2 0.1-0.4 0.2l-69.1-167.5h-1.5c-3.5-0.3-6.7-0.8-9.8-1.4l-4.3-0.8 72.1 174.9q0 0 0 0-0.9 0.4-1.7 0.8l-0.1 0.1-115.3-200.5-0.2-0.2q-1.4-1.3-2.7-2.7-1.3-1.3-2.5-2.7-1.3-1.4-2.5-2.8-1.2-1.5-2.3-3l-1.3-1.7-5.9 3.2 0.8 2q0.8 1.7 1.4 3.5 0.7 1.8 1.2 3.6 0.6 1.8 1.1 3.6 0.5 1.8 1 3.7v0.3l115.3 200.5c-0.5 0.4-1 0.7-1.6 1.1 0 0 0 0 0 0l-114.9-150.3-1.5 4.2c-1.1 3.1-2.4 6.2-3.7 9.2l-0.6 1.3 110 143.9-0.1 0.1q-0.2 0.1-0.4 0.3-0.2 0.1-0.3 0.3-0.2 0.1-0.4 0.3-0.2 0.2-0.3 0.4l-122.9-123.4-1.7 1.8q-1.4 1.6-2.9 3.1l-3.1 3.1-1.8 1.7 122.8 123.2v0.1c-0.4 0.4-0.8 0.9-1.3 1.4q0 0 0 0.1l-143.4-110.4-1.3 0.6q-1.2 0.5-2.3 1-1.1 0.5-2.3 0.9-1.1 0.5-2.3 0.9-1.2 0.5-2.3 0.8l-4.3 1.5 150 115.5q-0.1 0-0.1 0l-1 1.5q0 0.1 0 0.1l-199.9-115.8h-0.4q-1.8-0.4-3.6-1-1.8-0.5-3.6-1.1-1.8-0.6-3.6-1.3-1.8-0.6-3.5-1.4l-2-0.8-3.3 5.7 1.7 1.3q1.5 1.2 2.9 2.4 1.4 1.1 2.8 2.4 1.4 1.2 2.7 2.5 1.4 1.3 2.6 2.7l0.3 0.3 200.1 115.9q0 0.1 0 0.1-0.4 0.8-0.8 1.7l-174.8-72.7 0.9 4.4q0.2 1.3 0.4 2.5 0.3 1.2 0.4 2.4 0.2 1.3 0.4 2.5 0.1 1.2 0.2 2.5l0.1 1.4 167.2 69.5q0 0.1 0 0.1c-0.2 0.6-0.4 1.1-0.6 1.7v0.1l-168.2-45.3-0.5 2.4q-0.5 2.1-1 4.1c-0.3 1.3-0.8 2.8-1.2 4.2l-0.7 2.4 168.2 45.2q0 0 0 0 0 0-0.1 0.1 0 0 0 0 0 0 0 0-0.2 0.9-0.3 1.8l-179.6-23.7-0.9 1.2q-0.7 1-1.4 2-0.7 1-1.5 2-0.7 1-1.5 1.9-0.8 1-1.6 1.9l-2.8 3.4 187.5 24.8q-0.1 0.9-0.1 1.8v0.1h-231.1q-1.8 0.5-3.6 1-1.8 0.4-3.7 0.8-1.8 0.4-3.7 0.7-1.8 0.3-3.7 0.6l-2.1 0.3v6.6l2.1 0.2q1.9 0.3 3.8 0.6 1.9 0.3 3.7 0.7 1.9 0.4 3.7 0.9 1.8 0.4 3.7 1h698.4q1.9-0.6 3.7-1 1.8-0.5 3.7-0.9 1.8-0.4 3.7-0.7 1.9-0.3 3.8-0.6l2.1-0.2v-6.6zm-712.8 8q-1.8-0.6-3.7-1-1.9-0.5-3.8-0.9-1.9-0.4-3.8-0.7-1.9-0.3-3.8-0.6v-2.4q1.9-0.2 3.8-0.5 1.9-0.4 3.8-0.8 1.9-0.4 3.8-0.8 1.9-0.5 3.7-1h230.2q-0.1 4.5 0.1 8.7zm230.6-15.5l-182.6-24.1q0.9-1 1.6-2 0.8-1 1.6-2 0.8-1 1.5-2 0.8-1 1.5-2.1l177.6 23.5c-0.5 2.9-0.9 5.8-1.2 8.7zm396.5-68.3q0.5 2.2 1 4.2c0.4 1.4 0.8 2.9 1.3 4.3l-165.2 44.4c-0.7-2.7-1.4-5.4-2.3-8.5zm-0.6-40.6q-0.2 1.2-0.5 2.5-0.2 1.2-0.4 2.5-0.1 1.2-0.3 2.5-0.1 1.3-0.2 2.6l-165.4 68.6c-1.1-2.8-2.2-5.5-3.4-8zm21.7-58.6q1.9-0.4 3.7-1 1.9-0.5 3.7-1.1 1.9-0.6 3.7-1.3 1.8-0.6 3.6-1.4l1.2 2.1q-1.5 1.1-3 2.4-1.5 1.2-2.9 2.5-1.4 1.3-2.8 2.6-1.3 1.3-2.6 2.7l-199.5 115.7c-1.4-2.8-2.9-5.3-4.4-7.7zm-66.3-6.5q4.7 2.1 9.5 3.7l-146.2 112.6c-1.8-2.5-3.6-4.9-5.3-6.9zm-31.6-23.4q1.4 1.6 3 3.1c1 1.1 2.1 2.2 3.1 3.1l-120.3 120.8-0.7 0.6q-2.9-3.1-6.1-6.2zm-21-35q0.5 1.2 0.9 2.4 0.4 1.2 0.9 2.4 0.5 1.2 1 2.3 0.5 1.2 1 2.3l-106.2 139-2.8 3.6q-0.8-0.7-1.6-1.4-0.9-0.7-1.8-1.4-0.8-0.6-1.7-1.3-0.9-0.6-1.8-1.3zm-10.1-61.6q1.3-1.3 2.7-2.7 1.3-1.4 2.6-2.8 1.3-1.5 2.5-2.9 1.2-1.5 2.4-3l2 1.2q-0.7 1.8-1.4 3.6-0.7 1.8-1.3 3.6-0.6 1.9-1.1 3.7-0.5 1.9-1 3.8l-115 200c-2.5-1.6-5.1-3.1-7.6-4.4zm-60.8 27.7q1.3-0.1 2.5-0.2 1.3-0.2 2.5-0.3 1.3-0.2 2.5-0.4 1.3-0.2 2.5-0.5l-67 162.4-3.5 8.5q-1.3-0.7-2.7-1.3h-0.2c-1.7-0.8-3.5-1.5-5.1-2.1zm-39.1-4.3q2 0.6 4.1 1.2c1.5 0.4 2.8 0.7 4.3 1.1l-42.7 159.9-1.6 5.9c-2.7-0.8-5.4-1.5-8.4-2.2zm-35.5-19.9q0.9 0.9 1.9 1.7 1 0.8 2 1.6 1 0.7 2 1.5 1 0.7 2.1 1.5l-23 175.3-0.4 2.9c-3-0.5-5.9-0.9-8.7-1.2zm-39.6-48.3q0.6-1.9 1.1-3.8 0.5-1.9 0.9-3.8 0.4-1.9 0.7-3.8 0.3-1.9 0.6-3.8h2.3q0.3 1.9 0.6 3.8 0.3 1.9 0.7 3.8 0.4 1.9 0.9 3.8 0.5 1.9 1.1 3.8v231.1q-2.2 0-4.5 0-2.2 0-4.4 0zm-38.7 54.6q1-0.7 2-1.5 1-0.7 2-1.5 1-0.8 2-1.6 1-0.8 1.9-1.6l24.1 183.3c-2.8 0.2-5.7 0.6-8.7 1.1l-0.3-2.9zm-36 15.9c1.5-0.3 2.8-0.7 4.3-1.1q2.1-0.5 4.2-1.2l44.3 165.9c-3 0.7-5.8 1.5-8.5 2.3l-1.6-5.9zm26.3 163l-67-162.4q1.3 0.2 2.5 0.4 1.3 0.2 2.5 0.4 1.3 0.2 2.6 0.3 1.2 0.2 2.5 0.3l68.5 166.1c-1.6 0.6-3.4 1.3-5.2 2l-0.2 0.1q-1.3 0.6-2.7 1.2zm-125.2-184.2q-0.5-1.9-1-3.7-0.5-1.9-1.1-3.7-0.6-1.9-1.3-3.7-0.6-1.8-1.4-3.6l2-1.2q1.2 1.5 2.4 3 1.2 1.5 2.5 2.9 1.3 1.4 2.6 2.8 1.4 1.4 2.8 2.7l115.1 200.2c-2.5 1.3-5.1 2.8-7.6 4.3zm99.8 205.6l-106.2-139q0.5-1.1 1-2.3 0.5-1.2 1-2.3 0.5-1.2 0.9-2.4 0.5-1.2 0.9-2.4l112.1 146.6q-0.9 0.7-1.8 1.3-0.9 0.7-1.7 1.3-0.9 0.7-1.8 1.4-0.8 0.7-1.6 1.4zm-129.6-107.2c1-0.9 2.1-2 3.2-3.1q1.5-1.5 3-3.1l120.9 121.4q-3.2 3.1-6.1 6.2l-0.7-0.6zm-34.9 20.9q4.8-1.7 9.4-3.8l142.1 109.4c-1.8 2.1-3.6 4.4-5.4 6.9zm-61.4 10.3q-1.3-1.4-2.7-2.7-1.3-1.4-2.7-2.7-1.5-1.2-2.9-2.5-1.5-1.2-3-2.4l1.2-2q1.8 0.7 3.6 1.4 1.8 0.7 3.6 1.3 1.9 0.6 3.7 1.1 1.9 0.5 3.8 1l199.2 115.4c-1.5 2.4-2.9 4.9-4.4 7.7zm27.7 61.2q-0.1-1.3-0.2-2.5-0.2-1.3-0.4-2.6-0.1-1.2-0.4-2.5-0.2-1.2-0.4-2.5l170.2 70.7c-1.2 2.6-2.3 5.3-3.4 8zm-4.2 39.1c0.4-1.5 0.9-2.9 1.2-4.3q0.6-2 1-4.2l165.3 44.4c-0.9 3.1-1.7 5.8-2.3 8.5zm396.8 75.2v0.1h-13.3v-0.1q0-1.9 0.1-3.7c0-1.7-0.1-3.3-0.1-4.9v-0.1q-0.1-2.3-0.3-4.6c-0.3-2.9-0.7-5.8-1.2-8.7v-0.1c-0.3-1.5-0.5-3.1-0.9-4.5v-0.1c-0.7-3-1.4-5.8-2.3-8.5q0 0 0 0c-0.5-1.5-0.9-3-1.5-4.4q0 0 0 0-0.4-1-0.7-2-0.4-1.1-0.8-2-0.5-1-0.9-2-0.4-1-0.9-2-1-2.1-2-4.2c0-0.1-0.1-0.1-0.1-0.1-1.2-2.4-2.7-4.9-4.4-7.7 0 0 0 0 0 0q-1.2-2-2.6-3.9c0 0 0 0 0 0q-2.7-3.8-5.3-7c-1-1.2-2-2.3-3.1-3.5h-0.1q-0.7-0.8-1.4-1.6-0.8-0.8-1.6-1.6-0.7-0.8-1.5-1.5-0.8-0.8-1.6-1.5-1.7-1.6-3.5-3.1 0-0.1-0.1-0.1c-2.1-1.8-4.4-3.6-6.9-5.3q0 0-0.1-0.1c-1.2-0.8-2.5-1.7-3.8-2.5 0 0 0 0 0 0-2.3-1.5-4.7-2.9-7.5-4.4-0.1 0-0.1 0-0.1 0q-2.1-1.1-4.2-2.1 0 0 0 0c-1-0.5-1.9-0.9-2.9-1.3-1.7-0.7-3.5-1.4-5.2-2.1q-0.1 0-0.1 0c-1.4-0.5-2.9-1-4.4-1.5q0 0 0 0c-3-0.9-5.8-1.7-8.4-2.3h-0.1c-1.4-0.3-2.9-0.6-4.5-0.9-3-0.5-5.8-0.9-8.6-1.1h-0.1q-2.3-0.2-4.6-0.3h-0.1q-2.1-0.1-4.4-0.1-2.2 0-4.4 0.1-2.3 0.1-4.7 0.3c-2.9 0.2-5.7 0.6-8.6 1.1-1.6 0.3-3.1 0.6-4.6 0.9-2.7 0.6-5.4 1.4-8.4 2.3q0 0-0.1 0c-1.4 0.5-2.9 1-4.3 1.5q-0.1 0-0.1 0c-1.7 0.7-3.5 1.4-5.2 2.1-1 0.4-1.9 0.8-2.9 1.3q0 0-0.1 0-2.1 1-4.1 2.1c-0.1 0-0.1 0-0.1 0-2.8 1.5-5.3 2.9-7.5 4.4 0 0 0 0-0.1 0-1.2 0.8-2.5 1.7-3.7 2.5q-0.1 0.1-0.1 0.1c-2.5 1.7-4.8 3.5-7 5.3q0 0 0 0.1-1.8 1.5-3.5 3.1-0.8 0.7-1.6 1.5-0.8 0.7-1.6 1.5-0.7 0.8-1.5 1.6-0.7 0.8-1.5 1.6c-1.1 1.2-2.1 2.3-3.1 3.5q-2.7 3.2-5.3 7c0 0 0 0 0 0q-1.4 1.9-2.6 3.9c0 0 0 0 0 0-1.8 2.8-3.2 5.3-4.5 7.7 0 0 0 0 0 0.1q-1.1 2.1-2 4.2-0.5 1-0.9 2-0.5 1-0.9 2-0.4 0.9-0.8 2-0.4 1-0.7 2 0 0 0 0c-0.6 1.4-1.1 2.9-1.5 4.4q0 0-0.1 0c-0.8 2.7-1.6 5.5-2.2 8.5v0.1c-0.4 1.4-0.7 3-0.9 4.5v0.1c-0.6 2.9-0.9 5.8-1.2 8.7q-0.2 2.3-0.3 4.6v0.1c-0.1 1.6-0.1 3.2-0.1 4.9q0 1.8 0.1 3.7v0.1h-13.3v-0.1c-0.1-2.7-0.1-5.6 0-8.6v-0.7q0.1-0.8 0.1-1.6v-0.1q0.1-0.9 0.1-1.6v-0.1l0.1-0.8q0-0.8 0.1-1.6c0.3-2.9 0.7-5.7 1.2-8.6v-0.1c0.1-0.7 0.2-1.5 0.4-2.2q0.1-0.9 0.3-1.7 0.3-1.3 0.6-2.5c0.5-2.7 1.3-5.5 2.2-8.4q0 0 0 0c0.2-0.8 0.4-1.4 0.6-2q0.1-0.1 0.1-0.1c0.1-0.6 0.3-1 0.5-1.5q0-0.1 0-0.1 0.4-1.2 0.9-2.4v-0.1c1-2.7 2.1-5.3 3.2-7.9 0 0 0.1 0 0.1 0 0.3-0.7 0.6-1.4 0.9-2 0 0 0-0.1 0-0.1 0.3-0.5 0.5-1 0.7-1.5q0.1 0 0.1 0 0.6-1.2 1.1-2.3 0.1 0 0.1 0c1.4-2.8 2.8-5.2 4.3-7.6 0 0 0 0 0-0.1q0.6-0.9 1.2-1.7v-0.1l0.9-1.3 0.1-0.1c0.4-0.7 0.9-1.5 1.4-2.2 0 0 0 0 0 0 1.8-2.5 3.6-4.8 5.3-6.8q0-0.1 0-0.1c0.5-0.5 0.9-1.1 1.4-1.6v-0.1c0.4-0.4 0.8-0.8 1.1-1.3h0.1c0.6-0.6 1.1-1.3 1.7-1.9 1.9-2.1 4-4.1 6.1-6.1q0-0.1 0.1-0.1c0.5-0.4 1-0.9 1.5-1.4h0.1q0.6-0.6 1.3-1.2c0.7-0.6 1.3-1.1 1.9-1.6l0.1-0.1c2.3-1.9 4.6-3.7 6.8-5.2l0.1-0.1q0.9-0.6 1.7-1.2 0 0 0.1 0c0.5-0.4 0.9-0.7 1.4-1q-0.1 0 0 0c0.8-0.5 1.4-1 2.1-1.4q0 0 0.1 0 3.7-2.3 7.4-4.3c0.1 0 0.1 0 0.1 0 0.7-0.5 1.4-0.8 2.1-1.1q0-0.1 0.1-0.1c0.5-0.3 1-0.5 1.5-0.7 0 0 0 0 0 0q1.1-0.6 2.1-1h0.1q1.2-0.6 2.4-1.2l0.3-0.1c1.8-0.7 3.6-1.4 5.3-2.1 0 0 0 0 0 0q1.1-0.4 2.2-0.8c0 0 0.1 0 0.1 0 0.6-0.2 1.1-0.4 1.6-0.6 0.8-0.2 1.5-0.5 2.2-0.7h0.1c2.6-0.8 5.4-1.6 8.3-2.2h0.1c0.6-0.2 1.4-0.4 2-0.5l0.4-0.1 1.6-0.3h0.1q1.1-0.2 2.2-0.4c2.9-0.5 5.8-0.9 8.5-1.1h0.1q1.2-0.2 2.3-0.3h0.2l1.7-0.1 2.2-0.1h0.1q2.2-0.1 4.3-0.1 2.2 0 4.4 0.1l2.3 0.1 1.7 0.1h0.2q1.1 0.1 2.3 0.3c2.8 0.2 5.7 0.6 8.6 1.1q1.1 0.2 2.2 0.4h0.1l1.6 0.3 0.4 0.1c0.6 0.1 1.3 0.3 2 0.5h0.1c2.9 0.6 5.7 1.4 8.3 2.2 0.7 0.2 1.4 0.5 2.3 0.7 0.5 0.2 1 0.4 1.6 0.6 0 0 0 0 0.1 0q1 0.4 2.2 0.8c0 0 0 0 0 0 1.7 0.7 3.5 1.4 5.3 2.1l0.3 0.1q1.2 0.6 2.4 1.2 1.1 0.4 2.2 1c0 0 0 0 0 0 0.5 0.2 1 0.4 1.5 0.7q0 0 0.1 0.1c0.7 0.3 1.4 0.6 2.1 1.1 0 0 0 0 0 0q3.8 2 7.5 4.3 0.1 0 0 0c0.8 0.4 1.4 0.9 2.2 1.4q0 0 0 0c0.5 0.3 0.9 0.6 1.4 1q0 0 0.1 0 0.8 0.6 1.7 1.2l0.1 0.1c2.2 1.5 4.5 3.3 6.8 5.2v0.1c0.7 0.5 1.3 1 2 1.6q0.7 0.6 1.3 1.2c0.6 0.5 1.1 1 1.6 1.4q0 0 0.1 0.1c2.1 2 4.2 4 6.1 6.1 0.6 0.6 1.1 1.3 1.7 1.9 0.4 0.5 0.7 0.9 1.1 1.3l0.1 0.1c0.4 0.5 0.9 1.1 1.4 1.6q0 0 0 0.1c1.7 2 3.5 4.3 5.2 6.8 0 0 0 0 0 0 0.6 0.7 1 1.5 1.5 2.2l0.1 0.1 0.9 1.3v0.1q0.6 0.8 1.1 1.7c0 0.1 0.1 0.1 0.1 0.1 1.5 2.4 2.9 4.8 4.3 7.6q0 0 0 0 0.6 1.1 1.2 2.3 0 0 0 0c0.3 0.5 0.5 1 0.7 1.5 0.1 0 0.1 0.1 0.1 0.1 0.3 0.6 0.6 1.3 0.9 2 0 0 0 0 0 0 1.2 2.6 2.3 5.2 3.3 7.9v0.1q0.5 1.2 0.9 2.4 0 0 0 0.1c0.2 0.5 0.3 0.9 0.5 1.5q0 0 0 0.1c0.2 0.6 0.4 1.2 0.6 2q0.1 0 0.1 0c0.9 2.9 1.6 5.7 2.2 8.4q0.3 1.2 0.5 2.5 0.3 0.8 0.4 1.7c0.2 0.7 0.3 1.5 0.4 2.2v0.1c0.5 2.9 0.9 5.7 1.1 8.6q0.1 0.8 0.2 1.6l0.1 0.8v0.1q0 0.7 0 1.6v0.1q0.1 0.8 0.1 1.6l0.1 0.7c0.1 3 0.1 5.9 0 8.6zm-15.7 0.1h-200.7c0-1.4-0.1-2.6-0.1-3.8q0-2.5 0.1-4.9c0.1-1.5 0.2-2.9 0.3-4.4v-0.1c0.2-2.8 0.6-5.7 1.1-8.6q0.4-2.2 0.9-4.4 1-4.5 2.2-8.4 0 0 0.1 0 0.1-0.6 0.3-1.1 0.2-0.5 0.3-1 0.2-0.6 0.4-1.1 0.2-0.5 0.4-1 0.4-1 0.7-2 0.4-1 0.8-2 0.4-1 0.8-2 0.5-1 0.9-1.9c0-0.1 0.1-0.1 0.1-0.1 0.6-1.3 1.3-2.7 1.9-4 0 0 0 0 0 0 1.3-2.5 2.7-4.9 4.4-7.6 0-0.1 0-0.1 0-0.1 0.8-1.2 1.6-2.4 2.5-3.6 0-0.1 0-0.1 0-0.1 1.7-2.4 3.5-4.8 5.3-6.9q0 0 0 0c0.9-1.1 1.8-2.2 2.9-3.3q0.8-0.8 1.5-1.6 0.7-0.8 1.5-1.6 0.8-0.8 1.6-1.5 0.7-0.8 1.5-1.5 0.1 0 0.1 0c1.1-1.1 2.2-2 3.3-3q0 0 0 0c2.2-1.8 4.5-3.6 6.9-5.3 0 0 0 0 0 0q1.9-1.3 3.7-2.4 0 0 0 0c2.2-1.5 4.7-2.9 7.5-4.4 0 0 0 0 0 0 1.3-0.7 2.7-1.4 4-2 0 0 0 0 0.1 0 0.9-0.5 1.8-0.9 2.8-1.3 1.7-0.7 3.5-1.4 5.2-2q0 0 0-0.1 2.1-0.7 4.2-1.4 0 0 0.1 0 1-0.3 2-0.6 1-0.3 2.1-0.6 1-0.3 2.1-0.5 1-0.3 2.1-0.5 0 0 0 0 0 0 0 0 0 0 0 0 0 0 0 0c1.4-0.3 2.8-0.6 4.3-0.9h0.1c2.8-0.5 5.6-0.9 8.5-1.1q2.2-0.2 4.4-0.3h0.1c1.4-0.1 2.9-0.1 4.3-0.1 1.4 0 2.9 0 4.4 0.1q2.3 0.1 4.4 0.3h0.1c2.9 0.2 5.6 0.6 8.5 1.1 1.6 0.3 3 0.6 4.3 0.9q0 0 0.1 0 0 0 0 0 0 0 0 0 0 0 0 0 1.1 0.2 2.1 0.5 1.1 0.2 2.1 0.5 1 0.3 2.1 0.6 1 0.3 2 0.6 0 0 0.1 0 2.1 0.7 4.2 1.4 0 0.1 0 0.1c1.7 0.6 3.4 1.3 5.2 2 0.9 0.4 1.9 0.8 2.8 1.3 0 0 0 0 0.1 0 1.3 0.6 2.6 1.3 4 2 0 0 0 0 0 0 2.8 1.5 5.2 2.9 7.5 4.4q0 0 0 0 1.8 1.1 3.6 2.4c0.1 0 0.1 0 0.1 0 2.4 1.7 4.7 3.5 6.8 5.3q0.1 0 0.1 0c1.1 1 2.2 1.9 3.3 3q0 0 0 0 0.8 0.7 1.6 1.5 0.8 0.7 1.6 1.5 0.7 0.8 1.5 1.6 0.7 0.8 1.4 1.6c1.1 1.1 2.1 2.2 3 3.3q0 0 0 0c1.8 2.1 3.5 4.5 5.3 6.9 0 0 0 0 0 0.1 0.8 1.2 1.7 2.4 2.4 3.6 0 0 0.1 0 0.1 0.1 1.7 2.7 3.1 5.1 4.3 7.6 0 0 0 0 0 0 0.7 1.3 1.4 2.7 2 4 0 0 0 0 0 0.1q0.5 0.9 0.9 1.9 0.5 1 0.9 2 0.4 1 0.7 2 0.4 1 0.8 2 0.2 0.5 0.4 1 0.2 0.5 0.3 1.1 0.2 0.5 0.4 1 0.1 0.5 0.3 1.1 0 0 0 0 1.3 3.9 2.3 8.4 0.5 2.2 0.9 4.4c0.5 2.9 0.8 5.8 1.1 8.6v0.1c0.1 1.5 0.2 2.9 0.3 4.4q0.1 2.4 0.1 4.9c0 1.2-0.1 2.4-0.1 3.8zm16.5-24.2l177.6-23.4q0.7 1 1.4 2 0.8 1 1.6 2 0.7 1.1 1.5 2 0.8 1 1.6 2l-182.6 24.1c-0.2-2.9-0.6-5.8-1.1-8.7zm246.9 21.1q-1.9 0.2-3.8 0.5-1.9 0.3-3.8 0.7-1.9 0.4-3.8 0.9-1.8 0.4-3.7 1h-230.2q0.1-4.2 0-8.7h230.2q1.9 0.5 3.7 1 1.9 0.5 3.8 0.9 1.9 0.4 3.8 0.7 1.9 0.3 3.8 0.6z"/>
	<path class="s0" d="m384.4 32.8v231.2q-2.2-0.1-4.4-0.1-2.2 0-4.4 0.1v-231.2q0.6-1.8 1-3.7 0.5-1.9 0.9-3.8 0.4-1.9 0.8-3.8 0.3-1.9 0.5-3.9h2.4q0.2 2 0.5 3.9 0.4 1.9 0.8 3.8 0.4 1.9 0.9 3.8 0.4 1.9 1 3.7z"/>
	<path class="s0" d="m300.9 103.3l42.7 160 1.6 5.9c2.7-0.8 5.4-1.6 8.4-2.3l-44.3-165.9q-2 0.6-4.2 1.2c-1.4 0.4-2.7 0.7-4.2 1.1z"/>
	<path class="s0" d="m336.8 87.4l23 175.3 0.4 2.9c2.9-0.5 5.9-0.9 8.6-1.1l-24-183.3q-1 0.8-1.9 1.6-1 0.8-2 1.6-1 0.8-2 1.5-1.1 0.8-2.1 1.5z"/>
	<path class="s0" d="m260.2 103.9l67 162.4 3.5 8.5q1.3-0.7 2.7-1.3h0.2c1.8-0.8 3.5-1.5 5.2-2.1l-68.6-166.1q-1.2-0.1-2.5-0.2-1.3-0.2-2.5-0.4-1.3-0.1-2.5-0.3-1.3-0.3-2.5-0.5z"/>
	<path class="s0" d="m197.2 67.4q0.7 1.8 1.4 3.6 0.6 1.8 1.2 3.7 0.6 1.8 1.2 3.7 0.5 1.8 0.9 3.7l115.1 200c2.5-1.6 5.1-3 7.6-4.3l-115.2-200.2q-1.4-1.3-2.7-2.7-1.3-1.4-2.6-2.8-1.3-1.4-2.5-2.9-1.2-1.5-2.4-3z"/>
	<path class="s0" d="m195.5 148.7l106.2 139 2.8 3.6q0.8-0.8 1.6-1.5 0.9-0.6 1.8-1.3 0.8-0.7 1.7-1.3 0.9-0.7 1.8-1.3l-112.1-146.6q-0.4 1.2-0.9 2.4-0.4 1.2-0.9 2.3-0.5 1.2-1 2.4-0.5 1.1-1 2.3z"/>
	<path class="s0" d="m172.2 180.5l120.3 120.7 0.7 0.7q2.8-3.1 6.1-6.2l-121-121.4q-1.4 1.6-3 3.1c-1 1.1-2.1 2.2-3.1 3.1z"/>
	<path class="s0" d="m137.2 201.4l146.2 112.5c1.8-2.4 3.6-4.8 5.3-6.8l-142-109.5q-4.7 2.2-9.5 3.8z"/>
	<path class="s0" d="m99.3 311.9l165.2 44.4c0.6-2.7 1.3-5.4 2.3-8.4l-165.3-44.5q-0.5 2.2-1 4.2c-0.4 1.4-0.8 2.9-1.2 4.3z"/>
	<path class="s0" d="m79.4 347.6l182.6 24.1c0.3-2.9 0.7-5.8 1.2-8.7l-177.6-23.5q-0.8 1.1-1.5 2.1-0.7 1-1.5 2-0.8 1-1.6 2-0.8 1-1.6 2z"/>
	<path class="s0" d="m64.5 201.4q1.5 1.2 3 2.4 1.4 1.3 2.8 2.5 1.5 1.3 2.8 2.6 1.4 1.4 2.7 2.8l199.4 115.6c1.5-2.8 2.9-5.3 4.4-7.7l-199.2-115.4q-1.9-0.5-3.8-1-1.8-0.5-3.7-1.2-1.8-0.6-3.6-1.2-1.8-0.7-3.6-1.4z"/>
	<path class="s0" d="m102 262.7q0.3 1.3 0.5 2.6 0.2 1.2 0.4 2.5 0.2 1.2 0.3 2.5 0.2 1.3 0.3 2.5l165.4 68.6c1-2.7 2.2-5.4 3.3-7.9z"/>
	<path class="s0" d="m16.2 381.6v2.4q1.9 0.3 3.8 0.6 2 0.3 3.8 0.7 1.9 0.4 3.8 0.9 1.9 0.4 3.7 1h230.3q-0.2-4.2 0-8.7h-230.3q-1.8 0.5-3.7 1-1.9 0.5-3.8 0.9-1.9 0.3-3.8 0.7-1.9 0.3-3.8 0.5z"/>
	<path class="s0" d="m496 387.1v0.1h-13.3v-0.1q0.1-1.9 0.1-3.7c0-1.7 0-3.3-0.1-4.9v-0.1q-0.1-2.3-0.3-4.6c-0.2-2.9-0.6-5.8-1.1-8.7v-0.1c-0.3-1.5-0.6-3.1-0.9-4.6-0.7-3-1.5-5.8-2.3-8.5q0 0 0 0c-0.5-1.5-1-3-1.5-4.4q0 0 0 0-0.4-1-0.8-2.1-0.4-1-0.8-2-0.4-1-0.8-1.9-0.5-1-0.9-2-1-2.2-2.1-4.2c0-0.1 0-0.1 0-0.1-1.3-2.4-2.7-4.9-4.4-7.7 0 0-0.1 0-0.1 0q-1.2-2-2.5-3.9c0 0 0 0 0 0q-2.7-3.8-5.4-7c-0.9-1.2-1.9-2.3-3.1-3.5q-0.7-0.8-1.5-1.6-0.7-0.8-1.5-1.6-0.8-0.8-1.5-1.5-0.8-0.8-1.6-1.5h-0.1q-1.7-1.7-3.5-3.1 0-0.1 0-0.1c-2.2-1.8-4.5-3.6-6.9-5.3q-0.1 0-0.1-0.1c-1.3-0.9-2.5-1.7-3.8-2.5 0 0 0 0 0 0-2.3-1.5-4.8-2.9-7.6-4.4 0 0 0-0.1 0-0.1q-2.1-1-4.2-2 0 0-0.1 0c-0.9-0.5-1.9-0.9-2.8-1.3-1.8-0.8-3.5-1.4-5.3-2.1q0 0 0 0c-1.5-0.5-2.9-1-4.4-1.5q0 0-0.1 0c-2.9-1-5.7-1.7-8.4-2.3-1.4-0.3-2.9-0.6-4.5-0.9h-0.1c-2.9-0.5-5.7-0.9-8.6-1.1q-2.3-0.3-4.6-0.3h-0.1q-2.1-0.1-4.4-0.1-2.3 0-4.4 0.1h-0.1q-2.3 0-4.6 0.3c-2.9 0.2-5.7 0.6-8.6 1.1h-0.1c-1.6 0.3-3.1 0.6-4.5 0.9-2.7 0.6-5.5 1.3-8.4 2.3q-0.1 0-0.1 0c-1.5 0.5-2.9 1-4.4 1.5q0 0 0 0c-1.8 0.7-3.5 1.3-5.3 2.1-0.9 0.4-1.9 0.8-2.8 1.3q-0.1 0-0.1 0-2.1 1-4.2 2c0 0 0 0.1 0 0.1-2.8 1.5-5.3 2.9-7.6 4.4 0 0 0 0 0 0-1.3 0.8-2.5 1.6-3.8 2.5q0 0-0.1 0.1c-2.4 1.7-4.7 3.5-6.9 5.3q0 0 0 0.1-1.8 1.4-3.5 3.1h-0.1q-0.8 0.7-1.6 1.5-0.7 0.7-1.5 1.5-0.8 0.8-1.5 1.6-0.8 0.8-1.5 1.6c-1.2 1.2-2.2 2.3-3.1 3.5q-2.7 3.2-5.4 7c0 0 0 0 0 0q-1.3 1.9-2.5 3.9c0 0-0.1 0-0.1 0-1.7 2.8-3.2 5.3-4.4 7.7 0 0 0 0 0 0.1q-1.1 2-2.1 4.2-0.4 1-0.9 2-0.4 0.9-0.8 1.9-0.4 1-0.8 2-0.4 1.1-0.8 2.1 0 0 0 0c-0.5 1.4-1 2.9-1.5 4.4q0 0 0 0c-0.8 2.7-1.6 5.5-2.3 8.5-0.3 1.5-0.6 3.1-0.9 4.6v0.1c-0.5 2.9-0.9 5.8-1.1 8.7q-0.2 2.3-0.3 4.6v0.1c-0.1 1.6-0.1 3.2-0.1 4.9q0 1.8 0.1 3.7v0.1h-13.3v-0.1c-0.2-2.7-0.2-5.6-0.1-8.6l0.1-0.7q0-0.8 0.1-1.6v-0.1q0-0.9 0.1-1.6v-0.1l0.1-0.8q0-0.8 0.1-1.6c0.3-2.9 0.6-5.7 1.1-8.6v-0.1c0.1-0.7 0.3-1.5 0.4-2.2v-0.1q0.2-0.8 0.4-1.6 0.2-1.3 0.5-2.5c0.6-2.7 1.4-5.5 2.3-8.4q0 0 0 0c0.2-0.8 0.4-1.4 0.6-2q0-0.1 0-0.1c0.2-0.6 0.4-1 0.5-1.5q0-0.1 0.1-0.1 0.4-1.2 0.8-2.4v-0.1c1.1-2.7 2.2-5.3 3.3-7.9 0 0 0 0 0 0 0.3-0.7 0.6-1.4 1-2 0 0 0-0.1 0-0.1 0.2-0.5 0.5-1 0.7-1.5q0 0 0 0 0.6-1.2 1.2-2.3 0 0 0 0c1.5-2.8 2.9-5.2 4.4-7.6 0 0 0 0 0-0.1q0.6-0.9 1.1-1.7v-0.1l1-1.4c0.5-0.7 1-1.5 1.5-2.2 0 0 0 0 0 0 1.8-2.5 3.5-4.8 5.3-6.9q0 0 0 0c0.5-0.6 0.9-1.1 1.4-1.6v-0.1c0.4-0.4 0.8-0.8 1.1-1.3h0.1c0.5-0.7 1.1-1.3 1.7-1.9 1.9-2.1 3.9-4.1 6.1-6.2q0 0 0 0c0.5-0.5 1-0.9 1.6-1.4h0.1q0.6-0.6 1.2-1.2c0.7-0.6 1.3-1.1 2-1.6v-0.1c2.3-1.9 4.7-3.7 6.9-5.3q0.9-0.6 1.8-1.2 0 0 0-0.1c0.6-0.3 1-0.6 1.4-0.9q0 0 0 0c0.8-0.5 1.5-1 2.2-1.4q0 0 0 0 3.7-2.3 7.5-4.3c0 0 0-0.1 0.1-0.1 0.7-0.4 1.4-0.7 2.1-1q0-0.1 0-0.1c0.5-0.3 1-0.5 1.5-0.7 0.1 0 0.1-0.1 0.1-0.1q1.1-0.5 2.1-0.9 1.3-0.7 2.5-1.2l0.2-0.1c1.8-0.8 3.6-1.4 5.3-2.1 0.1 0 0.1 0 0.1 0q1.1-0.4 2.2-0.8c0 0 0.1 0 0.1 0 0.6-0.3 1.1-0.4 1.6-0.6 0.8-0.3 1.5-0.5 2.2-0.7 2.7-0.8 5.4-1.6 8.4-2.2 0.7-0.2 1.4-0.4 2.1-0.5l0.3-0.1 1.7-0.3q1.1-0.3 2.2-0.4c3-0.5 5.8-0.9 8.6-1.1h0.1q1.2-0.2 2.3-0.3h0.2l1.6-0.1 2.3-0.1h0.1q2.1-0.1 4.3-0.1 2.2 0 4.3 0.1h0.1l2.3 0.1 1.6 0.1h0.2q1.1 0.1 2.3 0.3h0.1c2.8 0.2 5.6 0.6 8.6 1.1q1.1 0.1 2.2 0.4l1.7 0.3 0.3 0.1c0.7 0.1 1.4 0.3 2.1 0.5 3 0.6 5.7 1.4 8.4 2.2 0.7 0.2 1.4 0.4 2.2 0.7 0.5 0.2 1 0.3 1.6 0.6 0 0 0.1 0 0.1 0q1.1 0.4 2.2 0.8c0 0 0 0 0.1 0 1.7 0.7 3.5 1.3 5.3 2.1l0.2 0.1q1.2 0.5 2.5 1.2 1 0.4 2.1 0.9c0 0 0 0.1 0.1 0.1 0.5 0.2 1 0.4 1.5 0.7q0 0 0 0.1c0.7 0.3 1.4 0.6 2.1 1 0.1 0 0.1 0.1 0.1 0.1q3.8 2 7.5 4.3 0 0 0 0c0.7 0.4 1.4 0.9 2.2 1.4q0 0 0 0c0.4 0.3 0.8 0.6 1.4 0.9q0 0.1 0 0.1 0.9 0.6 1.8 1.2c2.2 1.6 4.6 3.4 6.9 5.3v0.1c0.7 0.5 1.3 1 2 1.6q0.6 0.6 1.2 1.2h0.1c0.6 0.5 1.1 0.9 1.6 1.4q0 0 0 0c2.2 2.1 4.2 4.1 6.1 6.2 0.6 0.6 1.2 1.2 1.7 1.9h0.1c0.3 0.5 0.7 0.9 1.1 1.3v0.1c0.5 0.5 0.9 1 1.4 1.6q0 0 0 0c1.8 2.1 3.5 4.4 5.3 6.9 0 0 0 0 0 0 0.5 0.7 1 1.5 1.5 2.2l1 1.4v0.1q0.5 0.8 1.1 1.7c0 0.1 0 0.1 0 0.1 1.5 2.4 2.9 4.8 4.4 7.6q0 0 0 0 0.6 1.1 1.2 2.3 0 0 0 0c0.2 0.5 0.5 1 0.7 1.5 0 0 0 0.1 0 0.1 0.4 0.6 0.7 1.3 1 2 0 0 0 0 0 0 1.1 2.6 2.2 5.2 3.3 7.9v0.1q0.4 1.2 0.8 2.4 0.1 0 0.1 0.1c0.1 0.5 0.3 0.9 0.5 1.5q0 0 0 0.1c0.2 0.6 0.4 1.2 0.6 2q0 0 0 0c0.9 2.9 1.7 5.7 2.3 8.4q0.3 1.2 0.5 2.5 0.2 0.8 0.4 1.6v0.1c0.1 0.7 0.3 1.5 0.4 2.2v0.1c0.5 2.9 0.8 5.7 1.1 8.6q0.1 0.8 0.1 1.6l0.1 0.8v0.1q0.1 0.7 0.1 1.6v0.1q0.1 0.8 0.1 1.6l0.1 0.7c0.1 3 0.1 5.9-0.1 8.6z"/>
	<path class="s4" d="m480.4 383.4c0 1.2 0 2.4-0.1 3.7v0.1h-200.6v-0.1c-0.1-1.3-0.1-2.5-0.1-3.7q0-2.5 0.1-4.9c0-1.5 0.1-3 0.3-4.4v-0.1c0.2-2.8 0.6-5.7 1.1-8.6q0.4-2.2 0.9-4.4 1-4.5 2.2-8.4 0 0 0 0 0.2-0.6 0.4-1.1 0.1-0.5 0.3-1 0.2-0.6 0.4-1.1 0.2-0.5 0.4-1 0.3-1 0.7-2 0.4-1 0.8-2 0.4-1 0.8-2 0.4-1 0.9-1.9c0-0.1 0-0.1 0-0.1 0.6-1.4 1.3-2.7 2-4 0 0 0 0 0 0 1.3-2.5 2.7-4.9 4.4-7.6 0-0.1 0-0.1 0-0.1 0.8-1.3 1.6-2.5 2.5-3.7 0 0 0 0 0 0 1.7-2.5 3.5-4.8 5.2-6.9q0.1 0 0 0c1-1.1 1.9-2.2 3-3.3q0.7-0.8 1.5-1.6 0.7-0.8 1.5-1.6 0.7-0.8 1.5-1.5 0.8-0.8 1.6-1.5 0 0 0.1 0c1-1.1 2.1-2 3.2-3q0.1 0 0.1 0c2.1-1.8 4.4-3.6 6.9-5.3 0 0 0 0 0 0q1.8-1.3 3.6-2.4 0 0 0.1 0c2.2-1.5 4.7-2.9 7.4-4.4 0.1 0 0.1 0 0.1 0 1.3-0.7 2.6-1.4 4-2 0 0 0 0 0 0 1-0.5 1.9-0.9 2.9-1.3 1.7-0.7 3.4-1.4 5.1-2q0.1 0 0.1-0.1 2.1-0.7 4.2-1.4 0 0 0 0 1-0.3 2.1-0.6 1-0.3 2-0.6 1.1-0.3 2.1-0.5 1.1-0.3 2.1-0.5 0 0 0 0 0.1 0 0.1 0 0 0 0 0 0 0 0 0c1.4-0.4 2.8-0.6 4.3-0.9 2.9-0.5 5.7-0.9 8.5-1.1h0.1q2.2-0.3 4.4-0.3c1.5-0.1 3-0.1 4.4-0.1 1.4 0 2.9 0 4.4 0.1q2.2 0 4.4 0.3h0.1c2.8 0.2 5.6 0.6 8.5 1.1 1.5 0.3 2.9 0.5 4.3 0.9q0 0 0 0 0 0 0 0 0 0 0.1 0 0 0 0 0 1 0.2 2.1 0.5 1 0.2 2.1 0.5 1 0.3 2 0.6 1.1 0.3 2.1 0.6 0 0 0 0 2.1 0.7 4.2 1.4 0 0.1 0.1 0.1c1.7 0.6 3.4 1.3 5.1 2 1 0.4 1.9 0.8 2.9 1.3 0 0 0 0 0 0 1.4 0.6 2.7 1.3 4 2 0 0 0 0 0.1 0 2.7 1.5 5.2 2.9 7.4 4.4q0.1 0 0.1 0 1.8 1.1 3.6 2.4c0 0 0 0 0 0 2.5 1.7 4.8 3.5 6.9 5.3q0 0 0.1 0c1.1 1 2.2 1.9 3.2 3q0.1 0 0.1 0 0.8 0.7 1.6 1.5 0.8 0.7 1.5 1.5 0.8 0.8 1.5 1.6 0.8 0.8 1.5 1.6c1.1 1.1 2 2.2 3 3.3q0 0 0 0c1.7 2.1 3.5 4.4 5.2 6.9 0 0 0 0 0 0 0.9 1.2 1.7 2.4 2.5 3.7 0 0 0 0 0 0.1 1.7 2.7 3.1 5.1 4.4 7.6 0 0 0 0 0 0 0.7 1.3 1.4 2.6 2 4 0 0 0 0 0 0.1q0.5 0.9 0.9 1.9 0.4 1 0.8 2 0.4 1 0.8 2 0.4 1 0.7 2 0.2 0.5 0.4 1 0.2 0.5 0.4 1.1 0.2 0.5 0.3 1 0.2 0.5 0.4 1.1 0 0 0 0 1.2 3.9 2.2 8.4 0.5 2.2 0.9 4.4c0.5 2.9 0.9 5.8 1.1 8.6v0.1c0.2 1.4 0.3 2.9 0.3 4.4q0.1 2.4 0.1 4.9z"/>
</svg>