<svg id="Flag_of_Iran_1964" data-name="Flag of Iran 1964" xmlns="http://www.w3.org/2000/svg" viewBox="0 0 312.75601 312.75599"><polygon points="128.351 214.736 60.158 252.599 98.019 184.405 0 156.371 98.019 128.349 60.158 60.158 128.351 98.019 156.385 0 184.407 98.019 252.599 60.158 214.737 128.349 312.756 156.371 214.736 184.405 252.599 252.599 184.407 214.737 156.385 312.756 128.351 214.736" fill="#0047ab"/><polygon points="156.378 125.022 226.884 85.872 187.734 156.378 226.884 226.884 156.378 187.734 85.872 226.884 125.022 156.378 85.872 85.872 156.378 125.022" fill="#fff"/><polygon points="226.884 85.872 156.378 125.022 156.378 156.378 226.884 85.872" fill="#dcddde"/><polygon points="226.884 226.884 156.378 156.378 187.734 156.378 226.884 226.884" fill="#dcddde"/><polygon points="85.872 226.884 156.378 187.734 156.378 156.378 85.872 226.884" fill="#dcddde"/><polygon points="85.872 85.872 125.022 156.378 156.378 156.378 85.872 85.872" fill="#dcddde"/><polygon points="183.062 129.694 276.38 156.378 183.062 183.062 156.378 276.38 129.694 183.062 36.376 156.378 129.694 129.694 156.378 36.376 183.062 129.694" fill="#fff"/><polygon points="276.38 156.378 183.062 129.694 156.378 156.378 276.38 156.378" fill="#dcddde"/><polygon points="156.378 276.38 156.378 156.378 183.062 183.062 156.378 276.38" fill="#dcddde"/><polygon points="36.376 156.378 129.694 183.062 156.378 156.378 36.376 156.378" fill="#dcddde"/><polygon points="156.378 36.376 129.694 129.694 156.378 156.378 156.378 36.376" fill="#dcddde"/></svg>