<svg id="b2df6058-298e-468d-a1dc-1637a1cfc155" xmlns="http://www.w3.org/2000/svg" viewBox="0 0 1750 1000"><rect id="rect1" width="1750" height="1000" fill="#239f40"/><rect id="rect2" y="333.32777" width="1750" height="666.65554" fill="#fff"/><rect id="rect3" y="666.65554" width="1750" height="333.32777" fill="#da0000"/><polygon points="625.015 500.008 0 1000 0 0 625.015 500.008" fill="#0047ab"/><polygon points="330.902 536.46 375.903 617.506 294.857 572.504 258.397 700 221.936 572.504 140.89 617.506 185.892 536.46 58.395 500 185.892 463.54 140.89 382.494 221.936 427.496 258.397 300 294.857 427.496 375.903 382.494 330.902 463.54 458.398 500 330.902 536.46" fill="#fff"/><g id="g33"><path id="path1" d="M910.88274,491.71532l2.71873-148.339-13.14114-.05142L902.991,491.71524Z" fill="#ffbb26" stroke="#000" stroke-miterlimit="4.1184" stroke-width="2.84004"/><path id="path2" d="M924.4654,378.49268,903.07269,490.91243l7.72664,1.60571,25.4408-111.973Q930.44748,379.27,924.4654,378.49268Z" fill="#ffbb26" stroke="#000" stroke-miterlimit="4.1184" stroke-width="2.84004"/><path id="path3-0" d="M910.55546,493.28863,972.202,358.33686,960.17126,353.05l-56.853,137.092Z" fill="#ffbb26" stroke="#000" stroke-miterlimit="4.1184" stroke-width="2.84004"/><path id="path4-9" d="M969.61585,392.73915l-65.90151,96.69857,6.44335,4.5551,69.87232-95.113Q974.99971,395.58413,969.61585,392.73915Z" fill="#ffbb26" stroke="#000" stroke-miterlimit="4.1184" stroke-width="2.84004"/><path id="path5-4" d="M909.628,494.601l110.34846-99.17873-8.92468-9.64531L904.24584,488.82967Z" fill="#ffbb26" stroke="#000" stroke-miterlimit="4.1184" stroke-width="2.84004"/><path id="path6-8" d="M1003.60539,426.11594l-98.71528,62.22668,4.09512,6.74531,100.81556-58.67228Z" fill="#ffbb26" stroke="#000" stroke-miterlimit="4.1184" stroke-width="2.84004"/><path id="path7-8" d="M908.254,495.43464l144.77366-48.29771-4.38779-12.54559L905.61973,487.996Z" fill="#ffbb26" stroke="#000" stroke-miterlimit="4.1184" stroke-width="2.84004"/><path id="path8-2" d="M1029.84667,468.85912l-123.44144,18.946,1.06493,7.82025,124.33168-14.6059A104.219,104.219,0,0,0,1029.84667,468.85912Z" fill="#ffbb26" stroke="#000" stroke-miterlimit="4.1184" stroke-width="2.84004"/><path id="path9-4" d="M889.54433,378.43558q-5.98177.75481-11.78141,2.0189l25.30977,112.06366,7.72664-1.60571L889.54772,378.43559Z" fill="#ffbb26" stroke="#000" stroke-miterlimit="4.1184" stroke-width="2.84004"/><path id="path10-5" d="M910.55546,490.142,853.89539,353.02216l-12.07171,5.19265L903.3183,493.28863Z" fill="#ffbb26" stroke="#000" stroke-miterlimit="4.1184" stroke-width="2.84004"/><path id="path11-5" d="M844.33679,392.588q-5.38483,2.83287-10.4276,6.12722l69.80515,95.27761,6.44335-4.5551Z" fill="#ffbb26" stroke="#000" stroke-miterlimit="4.1184" stroke-width="2.84004"/><path id="path12-1" d="M909.628,488.82967l-68.0937-65.86844-3.0994,12.33869,65.811,59.30105Z" fill="#ffbb26" stroke="#000" stroke-miterlimit="4.1184" stroke-width="2.84004"/><path id="path13-7" d="M906.859,435.22c-33.98051,0-61.94069,25.11034-61.94069,56.42122s27.93435,56.56936,61.94069,56.56936c34.00619,0,62.09648-25.23278,62.09648-56.56936S940.83931,435.22,906.859,435.22Z" fill="#ffbb26" stroke="#000" stroke-miterlimit="4.1184" stroke-width="2.84004"/><path id="path14-1" d="M680.40825,486.863h23.77868c-1.62135-48.39446,7.22655-68.87383,14.98092-82.16362,24.10732-41.31625,71.77276-52.53869,101.651-54.10323-29.3491-14.75086-91.716-10.596-123.804,46.08721C680.46075,423.94456,680.32067,455.94635,680.40825,486.863Z" fill="#ffbb26" stroke="#000" stroke-miterlimit="4.1184" stroke-width="2.84004"/><path id="path15-1" d="M680.40825,486.863h23.77868v50.76405H680.38215Z" fill="#ffbb26" stroke="#000" stroke-miterlimit="4.1184" stroke-width="2.84004"/><path id="path16-5" d="M758.96208,357.33475c-35.257,7.93033-55.024,42.85327-61.46373,64.41645-4.496,15.05489-7.38353,30.82049-6.81881,65.11182h3.42324c-.51983-21.315-.12167-44.04277,6.72474-65.00769C709.27214,395.99643,726.69076,370.97053,758.96208,357.33475Z"/><path id="path17-2" d="M659.06764,481.75788h15.85309l17.153-4.919,17.153,4.919h15.85309l7.61,5.10451-7.61,5.10451H709.22667l-17.153,4.919-17.153-4.919H659.06764l-7.61-5.10451Z" fill="#ffbb26" stroke="#000" stroke-miterlimit="4.1184" stroke-width="2.84004"/><path id="path18-7" d="M689.46945,666.67223h377.8596V645.31917H689.46945Z" fill="#ffbb26" stroke="#000" stroke-miterlimit="4.1184" stroke-width="2.84004"/><path id="path19-6" d="M697.663,645.31752c.66765,3.98887,1.433,9.86989,7.01108,10.679-1.43236-1.65812-2.68935-6.74036-3.131-10.679Zm11.44214,0c.66765,3.98887,1.433,9.86989,7.01109,10.679-1.43238-1.65812-2.68923-6.74036-3.131-10.679Zm11.44215,0c.66753,3.98887,1.43638,9.86989,7.01444,10.679-1.43237-1.65812-2.69258-6.74036-3.13433-10.679Zm11.4455,0c.66754,3.98887,1.433,9.86989,7.01108,10.679-1.43237-1.65812-2.69258-6.74036-3.13432-10.679Zm11.44214,0c.66754,3.98887,1.4332,9.86989,7.01109,10.679-1.43221-1.65812-2.69258-6.74036-3.13433-10.679Zm11.44215,0c.66766,3.98887,1.43319,9.86989,7.01108,10.679-1.43221-1.65812-2.69258-6.74036-3.13433-10.679Zm11.44214,0c.66767,3.98887,1.43319,9.86989,7.01108,10.679-1.43221-1.65812-2.68923-6.74036-3.131-10.679Zm11.44214,0c.66767,3.98887,1.4332,9.86989,7.01109,10.679-1.43221-1.65812-2.68924-6.74036-3.131-10.679Zm11.44215,0c.66764,3.98887,1.433,9.86989,7.01108,10.679-1.43221-1.65812-2.68934-6.74036-3.131-10.679Zm11.44214,0c.66764,3.98887,1.433,9.86989,7.01108,10.679-1.43221-1.65812-2.68932-6.74036-3.131-10.679Zm11.44551,0c.66765,3.98887,1.433,9.86989,7.01109,10.679-1.43221-1.65812-2.69269-6.74036-3.13432-10.679Zm11.44213,0c.66765,3.98887,1.433,9.86989,7.01109,10.679-1.43237-1.65812-2.69258-6.74036-3.13432-10.679Zm11.44216,0c.66764,3.98887,1.433,9.86989,7.01108,10.679-1.43238-1.65812-2.69257-6.74036-3.13434-10.679Zm11.44213,0c.66754,3.98887,1.433,9.86989,7.01108,10.679-1.43238-1.65812-2.69257-6.74036-3.13431-10.679Zm11.44214,0c.66755,3.98887,1.433,9.86989,7.01111,10.679-1.43236-1.65812-2.68923-6.74036-3.131-10.679Zm11.44215,0c.66755,3.98887,1.433,9.86989,7.01108,10.679-1.43237-1.65812-2.68923-6.74036-3.131-10.679Zm11.44214,0c.66755,3.98887,1.433,9.86989,7.01108,10.679-1.43236-1.65812-2.68923-6.74036-3.131-10.679Zm11.44214,0c.66763,3.98887,1.433,9.86989,7.01109,10.679-1.43221-1.65812-2.68924-6.74036-3.131-10.679Zm11.44551,0c.66768,3.98887,1.4332,9.86989,7.01108,10.679-1.43221-1.65812-2.69259-6.74036-3.13433-10.679Zm11.44214,0c.66763,3.98887,1.433,9.86989,7.01108,10.679-1.43221-1.65812-2.69269-6.74036-3.13432-10.679Zm11.44214,0c.66763,3.98887,1.433,9.86989,7.01109,10.679-1.43221-1.65812-2.6927-6.74036-3.13433-10.679Zm11.44215,0c.66765,3.98887,1.433,9.86989,7.01111,10.679-1.43237-1.65812-2.6926-6.74036-3.13433-10.679Zm11.44214,0c.66765,3.98887,1.433,9.86989,7.01108,10.679-1.43237-1.65812-2.68923-6.74036-3.131-10.679Zm11.44214,0c.66755,3.98887,1.433,9.86989,7.01109,10.679-1.43237-1.65812-2.68921-6.74036-3.131-10.679Zm11.44214,0c.66756,3.98887,1.433,9.86989,7.01112,10.679-1.43237-1.65812-2.68924-6.74036-3.131-10.679Zm11.44215,0c.66752,3.98887,1.43638,9.86989,7.01444,10.679-1.43237-1.65812-2.69256-6.74036-3.13433-10.679Zm11.4455,0c.66755,3.98887,1.433,9.86989,7.01108,10.679-1.43236-1.65812-2.69259-6.74036-3.13432-10.679Zm11.44214,0c.66755,3.98887,1.433,9.86989,7.01109,10.679-1.43237-1.65812-2.69259-6.74036-3.13433-10.679Zm11.44215,0c.66765,3.98887,1.43286,9.86989,7.01108,10.679-1.43237-1.65812-2.69256-6.74036-3.13433-10.679Zm11.44214,0c.66763,3.98887,1.433,9.86989,7.01108,10.679-1.43221-1.65812-2.68923-6.74036-3.131-10.679Zm11.44214,0c.66763,3.98887,1.433,9.86989,7.01109,10.679-1.43221-1.65812-2.68921-6.74036-3.131-10.679Zm11.44215,0c.66765,3.98887,1.433,9.86989,7.01111,10.679-1.43237-1.65812-2.68926-6.74036-3.131-10.679Z"/><path id="path20-1" d="M686.39488,537.078c16.96829,11.41422,22.945,12.47495,44.39972,6.01671,28.16536,37.94163,34.91872,30.34672,48.99178,43.41619l1.279-70.82576s-38.846-3.51774-57.24262-9.02505c-5.97608-1.789-10.71956-4.877-16.87925-6.01668-14.402-2.66467-30.72129-.05177-30.72129,8.33812,0,2.86525,1.83382,5.53481,7.60406,6.23431Z" fill="#ffbb26" stroke="#000" stroke-miterlimit="4.1184" stroke-width="2.84004"/><path id="path21-4" d="M702.54028,532.06394c2.0912.81634,4.03634,5.01393,4.03634,5.01393s-3.1889,3.4965-5.5041,4.67965c-4.7578,2.4314-15.46214,2.82763-21.28253-.66851a4.62986,4.62986,0,0,1-2.20164-4.18559,8.2242,8.2242,0,0,1,1.46776-3.83649" fill="#ffbb26" stroke="#000" stroke-miterlimit="4.1184" stroke-width="2.84004"/><path id="path22-2" d="M704.008,523.03889c2.0912.81634,4.03634,5.01393,4.03634,5.01393s-3.1955,3.77154-5.5041,4.67966c-6.79026,2.67094-17.29685,3.49616-23.11724,0a4.92622,4.92622,0,0,1-2.20164-4.36639c0-2.06479,2.20162-4.99291,2.20162-4.99291" fill="#ffbb26" stroke="#000" stroke-miterlimit="4.1184" stroke-width="2.84004"/><path id="path23-3" d="M676.22224,508.98154c0,2.86523,1.83382,5.53479,7.60406,6.23432,9.74467,1.18137,15.81426-3.20023,20.18172-1.53629,1.59087.6061,2.84269,2.48155,4.03634,5.01393,0,0-3.21251,3.72944-5.5041,4.67966-6.25815,2.59494-17.29685,3.49616-23.11724,0a5.00135,5.00135,0,0,1-2.20164-4.41092c0-2.2959,1.34868-3.40492,2.27617-5.01131" fill="#ffbb26" stroke="#000" stroke-miterlimit="4.1184" stroke-width="2.84004"/><path id="path24-2" d="M922.52566,590.62967c-7.38731,12.31491,2.86277,23.31993-2.707,32.73888-17.97721-4.07645-35.86742-5.89056-47.25621,10.73864-5.58874,8.16031,1.19122,15.9683,10.90734,11.89467,8.68893,7.98967,18.92475,2.87546,31.462-1.49567,4.91835-1.71486,13.12552,3.22005,19.61043.71494,7.39065-2.855,12.39719-11.26954,17.08275-24.76965l7.28157,3.0544c.07808-5.77248-2.48995-10.17383-5.84532-14.16686l8.68966,2.92192c.05349-5.742-2.88518-9.81841-5.61627-13.11315l8.36561,3.08991c-1.67459-7.51537-.05643-13.8712-.7991-16.39148-1.6075-5.45433-2.44588-2.74459-4.56546-12.89118-25.18018-11.0315-19.752-37.02351-15.12927-48.02782l-47.94361,33.06033C886.37617,564.2946,899.67956,586.97192,922.52566,590.62967Z" fill="#ffbb26" stroke="#000" stroke-miterlimit="4.1184" stroke-width="2.84004"/><path id="path25-2" d="M1050.12245,398.99933c-5.76212-5.89155-10.53906-12.3877-16.32018-16.86337-29.65161-22.9559-65.20548,9.80929-43.714,41.76543,9.038,13.43876,37.49016,22.61292,48.16215,30.60212,29.05382,21.7502,20.71889,46.41525-8.44875,46.98229-16.19523.31476-31.47342-13.37133-47.10769-15.66738-29.27254-4.29893-37.589,7.08422-64.78752,7.4052-53.87464.63579-75.863-15.64891-75.863-15.64891L783.6353,545.19207c-17.84372,6.66013-18.7809,31.20339,0,44.43175-13.48348,8.07872-12.43165,17.732-22.0871,30.59921-19.51576-4.50766-35.87891-5.17735-47.24183,10.75862-5.38051,8.29906,1.17406,15.95,10.89017,11.87639,8.68891,7.98965,18.90615,2.97391,31.44342-1.39722,4.98933-1.73961,13.40677,3.27844,19.633.69861,7.22322-2.993,10.489-10.68548,15.645-16.06808,2.43168-2.53852,7.209-7.68472,7.209-7.68472l4.75486,6.00808c3.20139-4.98218,3.3561-9.96813,2.6075-14.9503l5.98193,6.42721c3.16355-4.96671,2.91986-9.93385,2.14735-13.97223l5.67516,6.42721a40.05042,40.05042,0,0,1,3.221-6.70666c1.47993-2.533,4.3622-5.91646,4.90824-7.82447a43.16393,43.16393,0,0,0,1.22706-7.545c3.27547,2.8524,5.76381,4.33715,9.96987,3.77251.59984-5.967,1.03569-7.77442,2.60752-10.19973,20.31029-.147,70.37865-6.90047,102.15279-38.70312,1.14472-1.1457,16.17678-4.80663,25.00137,5.72863,4.40432,11.21786,14.79405,37.99118,43.40728,43.73311-7.38731,12.31491,2.80883,23.41583-2.76088,32.83477-20.33495-4.55723-36.92664-4.2042-47.24183,10.61892-5.64951,8.11838,1.17406,16.08976,10.89015,12.01613,8.68892,7.98964,18.90617,2.83418,31.44342-1.537,4.94712-1.72491,13.15836,3.19976,19.633.69861,7.39064-2.855,12.4933-11.23077,17.17886-24.73088l7.209,2.93417c.07808-5.77248-2.47318-10.11889-5.82854-14.112l8.7428,2.93418c.05349-5.742-3.20949-10.23731-5.67514-13.13391l8.436,3.0739c-1.79557-7.14716-.16238-13.77538-.92029-16.34752-1.59026-5.396-2.66131-3.20391-4.44809-12.85449-32.0102-15.175-6.74485-38.09418-30.52314-58.47388,24.28514.73948,45.86015-4.16438,49.17706-30.512,1.445-38.7242-57.69672-49.10013-69.7306-66.10582-15.07345-21.301,7.81309-45.59714,28.68255-29.202,12.4206,11.83219,24.67674,31.527,43.56065,21.51726,20.56417-10.90044-1.449-30.59532,27.92847-33.54094-3.21133-6.14676-17.95551-12.35736-24.22018.49768-7.5203-10.2237-21.894-5.25767-24.58436,4.479,39.28671-.89668,17.61627,34.962.38468,17.34326Z" fill="#ffbb26" stroke="#000" stroke-miterlimit="4.1184" stroke-width="2.84004"/><path id="path26-1" d="M761.30874,518.2041l-4.33835,11.1437c-3.46758,12.603-1.56288,23.70485,3.18148,32.66988,2.89228-1.25509,5.78451-3.9705,8.67675-6.58668,1.42781,4.35264.78855,10.54179,5.7845,15.54452a31.59628,31.59628,0,0,0,11.27974-9.74826c.96545,5.95357,3.45472,10.47,8.46165,13.70028,5.00695-3.23026,7.49622-7.74676,8.46168-13.70033,2.09541,2.89812,5.61327,7.904,11.27973,10.80218,4.996-5.00275,4.93514-8.03032,6.50759-13.00255,2.52932,5.17667,5.75791,7.81137,11.42439,10.70949,4.99594-5.00275,4.35669-11.19188,5.7845-15.54449,2.39563,3.521,5.42886,5.97939,8.67675,6.58668a22.8429,22.8429,0,0,0,4.264-13.08819,23.55884,23.55884,0,0,0,11.93485,4.54248,41.58365,41.58365,0,0,0-.03441-16.23218c4.39078,1.37652,5.23638,2.63077,10.63733,2.64014,3.61208-12.07908-.68327-25.15058-13.24619-34.41195Z" fill="#ffbb26" stroke="#000" stroke-miterlimit="4.1184" stroke-width="2.84004"/><path id="path27-6" d="M752.89576,481.018s-11.186,17.89261-13.4209,27.12564c-1.44621,5.97461-1.25823,15.28205-1.25823,15.28205a16.43033,16.43033,0,0,0,10.90449-4.20255c.376,5.094-.18062,10.188,3.35522,15.28208,3.63486-1.27719,8.10847-2.95775,11.74331-9.16926.28075,6.335,1.56848,10.07155,5.45223,16.04619,4.762-1.38484,8.499-6.5476,12.16272-9.93335.078,4.62013,1.343,9.78092,5.87163,16.42822,5.94623-3.24661,9.40229-10.7571,10.782-15.01937,1.50912,4.02689,4.83578,11.77276,10.782,15.01937,4.52862-6.6473,5.79359-11.80809,5.87161-16.42822,3.66378,3.38575,7.4007,8.54851,12.16274,9.93335,3.88375-5.97464,5.17147-9.71117,5.45221-16.04619,3.63487,6.21151,8.10847,7.89207,11.74331,9.16926,3.53586-5.09405,2.97926-10.188,3.35524-15.28208,3.63484,3.2628,8.61268,6.09193,12.24753,6.29983.72319-.65877,3.56538-9.58769,2.19522-14.9325,4.27456,3.37811,7.927,5.62945,14.2368,5.46653,1.03315-4.93541.14826-9.871-.91019-14.34323,6.85863,2.35848,14.28843,3.0003,19.59149.45938-12.37456-20.94023-31.9371-24.36081-53.42037-27.97133Z" fill="#ffbb26" stroke="#000" stroke-miterlimit="4.1184" stroke-width="2.84004"/><path id="path28-8" d="M836.25426,389.24477c-.85942-2.171-.42161-6.91338-.42161-6.91338-13.66321,3.15246-14.549,5.96235-19.85536,12.532.89393-5.33373.30333-7.67884-4.21628-11.13823-1.89905,2.36532-4.05715,7.6681-6.32443,9.73345-.77256-4.82331-1.81493-8.96111-6.18581-12.05319-3.81365,3.3439-6.00028,7.08752-6.1858,12.05319-2.26727-2.06535-4.42537-7.36813-6.32442-9.73345-4.51961,3.4594-5.11021,5.8045-4.21628,11.13823-6.681-8.28571-9.76369-10.56174-19.85536-12.532a37.14625,37.14625,0,0,1-.42162,6.91338c-1.25863,5.22066-7.42289,11.97723-2.06927,20.21356-15.35985,9.73639-12.018,22.7834-20.503,36.87143,3.82042-.3626,4.65.78,10.56632-.05865-8.15333,6.32095-8.72362,7.60282-11.13572,16.97433,2.96139-1.07486,5.47185-.21418,11.23452-1.68228-1.95819,4.18029-6.1753,7.23468-8.52513,9.21526a27.54373,27.54373,0,0,0-9.62983,15.4612c3.80571.04472,7.61146-1.17653,11.41717-2.15177a23.87615,23.87615,0,0,0-.39364,14.34532c5.71005-2.0907,8.539-4.29544,12.20454-6.4554-.46874,4.184-.72269,9.08535.78738,13.26939,3.80569-1.01611,7.6114-3.28851,11.41711-7.17266a24.21227,24.21227,0,0,0,3.54326,12.91074,59.53149,59.53149,0,0,0,9.84236-6.45535c1.13749,3.87864,1.40714,7.23025,5.51171,12.91075,6.27009-2.54692,7.54883-6.23054,9.84234-9.68306.871,3.18777,2.42391,6.68616,7.00854,11.56535,5.99631-3.94916,5.69342-7.89832,7.38167-11.84748,1.36463,2.83366,4.26746,7.84216,8.7877,9.9263,3.41452-3.52223,3.946-8.32529,4.92106-11.20711a27.9786,27.9786,0,0,0,11.59971,8.32529c2.57294-4.69486,2.65692-8.634,2.46063-12.48793,4.33527,4.551,8.67052,5.834,13.00577,7.04446a29.67848,29.67848,0,0,0,0-12.808c4.56957,3.271,9.13917,4.83682,13.70878,3.84238.23214-4.70961-1.28085-8.23645-2.81209-12.16765,4.5983.79935,8.98666,1.21633,12.65429.32012,0,0-2.50208-5.602-5.62415-8.32521-4.02047-3.50693-9.45883-6.07388-13.46789-9.59171-2.31924-2.03509-7.53881-7.11722-7.53881-7.11722a61.87614,61.87614,0,0,1,10.00556.41358c-2.41211-9.3715-3.11714-12.69435-11.27046-19.0153,6.15662.95168,6.933.11626,10.75343.47873-8.485-14.08806-6.93414-28.35866-19.60755-35.64783,3.9663-9.58076,1.37107-11.52516-2.06927-20.21357Z" fill="#ffbb26" stroke="#000" stroke-miterlimit="4.1184" stroke-width="2.84004"/><path id="path29-5" d="M862.65356,536.00063l-.69325,6.29177c-.09839-5.89409-3.06564-11.14737-4.38631-14.49845,2.12186,3.16011,6.20913,7.2397,10.982,8.81929Zm-4.963,13.70329-6.93741-2.01359-2.29777,5.728c1.4117-5.59559.02546-16.03257-.2046-19.27443C849.39722,537.66631,851.68272,547.28208,857.69053,549.70392Zm-15.554,7.24406-4.32414-2.75614-2.56694,5.30506c.93412-4.32086-.43843-17.60144-.66838-20.8433,1.14648,3.52244,4.4395,15.37123,7.55946,18.29441Zm-16.24,7.01736-5.29306-4.9385-3.40567,6.15913c2.14362-5.5937,1.857-16.93583,1.62707-20.17772,1.14648,3.52244,3.16587,14.91681,7.07166,18.95707Zm-17.76442,1.61994-5.316-4.35807-3.48952,6.3283c2.13968-4.50154,1.95073-17.35794,1.72078-20.5998C802.19391,550.47814,803.49477,560.12785,808.13214,565.58528Zm-27.67189-.40915,5.4326-3.94887,3.13847,5.57211c-2.35582-5.7407-1.97223-12.912-1.74228-16.15387C786.14257,554.16794,784.71482,560.84358,780.46025,565.17613Zm-16.47459-7.399,4.84294-2.3461,2.58519,5.30162a64.35857,64.35857,0,0,1-.92124-16.516C769.34608,547.73907,767.87322,554.16366,763.98566,557.7771Z"/><path id="path30-7" d="M875.62476,501.71377l-.32768,6.02105c-.57023-7.08663-4.539-12.92437-6.38476-15.704,2.305,2.771,7.56783,9.23562,16.44863,10.26518Zm-6.75548,11.46879-6.57116-2.59211-1.29574,6.45816c.54281-6.79172-2.86959-12.2976-4.54074-15.16748C859.095,504.66392,863.89258,510.74314,868.86928,513.18256Zm-14.47005,8.92262-6.54385-2.882-1.80724,6.69816a39.49711,39.49711,0,0,0-1.92206-15.72977c2.06914,3.15366,4.99946,8.86958,10.27315,11.91362Zm-16.256,7.50149-5.38645-4.27068-2.42563,6.65914c1.64994-5.93187.25389-14.14212-.42791-17.33084,1.63012,3.36049,3.44778,10.47571,8.24,14.9424Zm-35.6545,8.6539-4.00056-5.40291L794.404,538.585c2.61921-4.72438,3.883-14.76623,4.04011-18.01173.72067,3.61481,1.60216,13.005,4.04464,17.6873Zm18.37551-3.07376-5.72241-3.738-2.56114,6.73319c1.597-5.44512.27143-15.15986-.41035-18.34857C813.8005,523.19394,816.389,531.14375,820.86428,535.18681Zm-44.89351.15927,5.86382-3.89727,2.53578,6.64351c-1.59289-5.58035-.264-13.85831.26476-17.39736C783.005,524.05547,779.35448,532.5009,775.97077,535.34608Zm-16.82293-5.99975,5.07181-4.01034,2.46833,6.79587c-1.71794-5.69234.621-16.20613,1.30282-19.39487-1.63013,3.36048-5.61491,13.97655-8.843,16.60931Zm-14.64542-8.77427,4.61869-1.34891,1.75075,5.67284c-.41339-5.13534,2.09432-13.10779,3.18582-16.20054-2.05547,3.16106-6.4909,10.70695-9.55526,11.87659Z"/><path id="path31-6" d="M831.03026,389.96042c-6.99687,4.9887-11.10061,5.80428-11.35033,15.64891,6.96109-3.065,9.57342-2.46169,11.96385,4.75056C837.31222,400.31462,830.28352,399.75751,831.03026,389.96042Zm-66.72144,27.52531c-5.85623,3.57624-6.94774,12.22676,2.45413,15.78865-7.16625,6.12677-5.92357,19.8649.61352,26.54726a133.436,133.436,0,0,0-10.03623,16.14145c4.45134-3.62009,9.09208-10.09146,12.49035-14.04562a23.02454,23.02454,0,0,0,5.06163,2.65473,124.06092,124.06092,0,0,0-7.0556,18.16392c4.02407-4.65756,7.58377-12.84539,10.27664-17.04615a34.059,34.059,0,0,0,4.14132.69861,9.83223,9.83223,0,0,0,1.07367,8.80252,124.9032,124.9032,0,0,0-7.36236,18.44337c3.803-4.29273,7.14925-11.54849,9.81649-15.92837a15.54466,15.54466,0,0,0,5.67516,2.79444,128.09823,128.09823,0,0,0-1.84059,18.44338c2.5031-5.02433,3.83564-12.89654,5.215-17.74476a15.61645,15.61645,0,0,0,4.60147.14c.96171,4.94868,1.61938,12.67691,3.68117,17.74476a128.46367,128.46367,0,0,0-.30677-18.16392,17.9336,17.9336,0,0,0,4.60149-1.67667c2.17046,4.56072,4.61577,12.5561,7.97589,17.32558-.86606-5.35045-3.58734-15.84015-5.06162-19.2817,2.77952-2.11531,3.53639-5.45929,3.37442-8.80253,4.56588,3.72454,12.03883,10.35048,17.02547,13.27364-2.95959-4.1618-11.11492-12.33093-14.87811-15.78862a25.82739,25.82739,0,0,0,10.27664-4.3314c4.3374,3.60341,13.70592,12.03142,19.09889,15.19281-3.13647-4.41057-13.45781-14.24749-16.79817-17.42836,6.11165-6.624,7.46279-20.014.30677-26.12811,9.40192-3.562,8.31033-12.21248,2.45412-15.78865,1.07835,3.073,1.87559,5.51733.9203,9.082-1.66351,4.67781-6.85228,4.764-11.04354,5.30945,3.19558,1.88632,6.30017,3.95542,8.12928,7.26557,4.43753,15.69386-10.24578,26.48006-23.9277,24.59114-5.52844-.76325-5.68189-2.02289-5.67516-6.56695a10.39351,10.39351,0,0,0,3.52782-.978,5.46016,5.46016,0,0,0,1.994-1.67667,6.28223,6.28223,0,0,1,.92032-.97808,9.26362,9.26362,0,0,1,3.68118-.41894l1.84059.41894.15307-1.81639a7.39462,7.39462,0,0,0-.76691-5.15949,10.30718,10.30718,0,0,0-3.68118-4.05194c-.54122-.35233-.85574-.514-1.07367-.69862a.71622.71622,0,0,1-.30677-.41894c-1.41279-5.22836-1.85008-9.757-.45992-14.12221.83191-2.6127,3.67662-4.82169,7.36237-5.30945,3.97029-.5254,8.80926.58415,11.04355.978-6.32606-7.20941-19.22629-4.52735-21.78035,3.49308-1.59,4.99316-.99636,10.26993.45992,15.65915.378,1.39927,1.29149,2.116,2.76088,3.0739a6.142,6.142,0,0,1,2.6075,2.65472c.63122,1.27969.38482,1.23748.30677,2.365-1.10367-.08274-1.78012-.89249-3.5278-.13949a6.04857,6.04857,0,0,0-2.30075,1.95612c-.50136.602-.949,1.06882-.7669.978a8.1558,8.1558,0,0,1-2.30075.55889c-.43976.0454-2.62636.04558-3.06765,0a8.15407,8.15407,0,0,1-2.30075-.55889c.18211.09082-.26553-.376-.7669-.978a6.04856,6.04856,0,0,0-2.30073-1.95612c-1.74768-.75275-2.42413.05675-3.5278.13949-.078-1.12756-.32443-1.08536.30677-2.365a6.14188,6.14188,0,0,1,2.6075-2.65472c1.46889-.9576,2.38252-1.674,2.76088-3.0739,1.45653-5.38922,2.05017-10.666.45991-15.65915-2.554-8.02039-15.45422-10.70252-21.78032-3.49308,2.23428-.39389,7.07327-1.50344,11.04354-.978,3.68574.48776,6.53046,2.69675,7.36236,5.30945,1.38992,4.36519.95265,8.89385-.45989,14.12221a.71348.71348,0,0,1-.30677.41894c-.21793.18467-.53244.34607-1.07368.69862a10.30724,10.30724,0,0,0-3.68117,4.05194,7.39547,7.39547,0,0,0-.76692,5.15949l.15313,1.81639,1.84059-.41894a9.27243,9.27243,0,0,1,3.68118.41894,6.28223,6.28223,0,0,1,.92029.97808,5.46045,5.46045,0,0,0,1.994,1.67667,10.39,10.39,0,0,0,3.52781.978c.33277,4.81353-.51306,5.71983-5.67517,6.56695-13.09758,2.14951-28.43807-8.64-23.92768-24.59114,1.70122-3.39778,5.03617-5.30546,8.12928-7.26557-4.35974-.47413-9.11721-.751-11.04354-5.30945-.95529-3.56464-.15805-6.009.92029-9.082Zm12.424,9.22168c.633,3.56424,4.76251,8.28686,11.81046,4.47113C785.61965,424.06743,780.72135,424.9235,776.73282,426.70741Zm30.21638,4.47113c7.04794,3.81573,11.17747-.90689,11.81044-4.47113C814.7683,424.92266,809.873,424.06693,806.9492,431.17854Zm-9.203,33.1142c4.28137,2.409,7.79633,2.58865,12.11723,2.51479,2.28578,5.01641-2.8344,10.33946-12.11723,10.33946-8.86309,0-14.66854-4.85429-12.11721-10.33946A21.96456,21.96456,0,0,0,797.74623,464.29274Zm-42.79374,6.70668c-5.76487,4.05987-9.85869,11.31706-16.53,12.94152l5.17983.14689.289,5.07547C746.71684,478.2514,753.43355,477.63259,754.95249,470.99942Zm10.5834,2.23557c-5.054,4.78172-10.00566,17.724-16.39444,20.85892l6.27175-2.11612,1.07041,6.03838C756.19668,487.25133,764.48007,481.05761,765.53589,473.235Zm83.13336,1.95611c1.55527,6.37787,11.59572,8.63405,14.27015,18.44337l-.52027-5.69129,7.24753-.64022C862.698,487.30811,858.6882,482.7798,848.66925,475.1911Zm-12.40171,1.04261c.24737,6.52949,14.03037,15.781,14.49475,26.10716l.76015-6.07243,6.59951,1.9122C849.74314,494.57426,840.94156,480.03163,836.26754,476.23371Zm-63.52268,7.75991c-4.07261,5.5043-4.91576,13.30311-10.89,17.05169l5.76279-2.97078,2.03252,5.46793C767.82986,493.56176,773.18635,491.86488,772.74486,483.99362Zm57.21171.41895c-.269,6.52876,8.66674,12.00056,6.94022,23.33364l1.61988-5.71417,6.29359,3.04711C838.18777,500.771,834.31849,488.507,829.95657,484.41257Zm-10.73677,1.95612c-1.73319,7.72178,5.80045,14.37113,2.27156,24.90282l2.965-5.07681,5.3436,3.17707C823.67705,504.32172,822.33955,492.3674,819.2198,486.36869Zm-35.89153,4.47111c-3.11974,5.99873-1.362,11.63525-7.96936,16.00194l5.6444-2.31181,3.10817,5.67429C780.45255,500.1084,785.05124,498.5943,783.32827,490.8398Zm24.23446.97807c-2.36936,7.5798,3.85487,10.12658-.18052,20.95836l3.36536-5.30074,4.33089,4.32265c-4.59073-5.32753-4.90456-13.78324-7.51573-19.9803Zm-10.5834,4.47111c-2.6112,6.19707-.9022,10.28758-4.97659,15.48232l4.35464-4.01367,3.71206,5.0054C795.73415,504.27722,799.3556,503.8741,796.97933,496.289ZM766.91662,389.96042c6.99687,4.9887,11.10061,5.80428,11.35032,15.64891-6.96109-3.065-9.57342-2.46169-11.96385,4.75056C760.63465,400.31462,767.66335,399.75752,766.91662,389.96042Z"/><path id="path32-1" d="M749.73757,626.65024c-15.1751-1.76648-30.65727,4.47819-25.155,17.88448l3.221-1.25751c-3.75551-12.65768,12.94362-15.0205,21.93394-16.627Zm232.22116-82.01706c1.63705,11.85721,5.52775,20.99461,12.424,27.80475s16.53876,11.192,29.14271,13.97224c-4.36219-6.39866-18.91733-11.18477-25.46151-16.90641C989.24043,561.78933,987.57112,548.67723,981.95873,544.63318Zm37.54241,76.83034c1.89811-3.77245,5.48412-8.30024,6.12239-13.23785s.25867-9.97064-2.16583-13.71392C1020.47773,596.40236,1018.13976,620.71549,1019.50114,621.46352ZM976.134,538.48811c.80508-5.70055-2.17424-7.91021-5.70926-9.23-4.9361-1.84285-9.73525.14156-11.14819,4.284C964.80433,530.77806,972.43344,533.18618,976.134,538.48811ZM856.82113,558.04936c-.87529,5.78088,11.05723,17.6398,17.99661,17.92843l7.85694-1.85195C870.07727,574.143,859.06744,563.81082,856.82113,558.04936Zm-63.22019,22.76778c.74452,4.25362,6.9037,4.68229,10.73865,3.902,5.0265-1.02312,7.52181-5.75876,5.76944-9.74471C808.74229,580.33,800.14279,582.807,793.60094,580.81714Zm.20173,11.317c.75451,4.31075,7.07016,4.69312,10.89192,3.87,4.76771-1.02679,7.39953-5.65619,5.61617-9.71266-1.36675,5.35559-9.96624,7.83255-16.50809,5.84268ZM772.4316,626.50451c3.71882-2.39691,9.31378-4.6763,12.584-8.65674s5.7123-8.50831,5.67515-12.85449C787.07175,605.26782,771.66552,625.23549,772.4316,626.50451Zm225.03909,3.22887c-15.1751-1.76648-30.65727,4.47818-25.155,17.88447l3.221-1.2575c-3.7555-12.65768,12.94361-15.0205,21.93394-16.627Zm-90.006.2494c-15.1751-1.76648-30.65728,4.47818-25.155,17.88449l3.221-1.2575C881.7752,633.95209,898.47432,631.58927,907.46465,629.98278Zm-11.97629-95.18449c1.49541,6.88667,27.218,21.23291,36.73137,16.75121l5.19031-4.05513C924.95084,552.84763,901.61563,541.54377,895.48836,534.79829Zm-13.25864,1.9136c-.40743,7.07983,29.67428,24.24018,37.84515,22.65644l6.52035-3.94063c-8.66337,4.83969-40.46974-11.21117-44.36553-18.71581Zm-7.00715,8.35919c1.33185,8.85021,25.96686,22.86539,31.67951,20.8118l7.90185-3.69451c-13.01372,2.90565-34.75462-8.54534-39.58133-17.11729Zm-7.62932,8.0988c-.62264,6.76261,15.10757,17.51672,22.55147,18.848l8.77714-2.93254C887.03533,570.99827,870.04087,559.31156,867.59325,553.16988Zm-19.11377,10.75363c-.28573,2.59608,2.84568,11.394,10.35695,14.74284l7.91587-1.154C856.48264,575.97986,850.69279,567.96187,848.47948,563.92351Zm-10.75714,4.98511c.04231,3.16665.93246,8.12814,5.03457,10.92934l7.69-.34322a21.72423,21.72423,0,0,1-12.72453-10.58614Zm85.77773-.0891c-2.80757-1.05277-6.8239-3.12176-8.69614-6.63118l3.38429-1.77669a20.54874,20.54874,0,0,0,5.312,8.4079Zm-5.50405,4.62825c-7.39558-2.70874-8.8877-6.90527-9.39689-8.31037l3.6621-1.74969a20.36649,20.36649,0,0,0,5.735,10.06011Zm-16.08266-5.51487,4.28424-1.748c-.25555,3.17664,3.4252,8.6199,6.25076,11.80483-4.21365-2.53973-8.72016-5.30815-10.535-10.05688Zm30.67475,60.7862c2.5537-3.43651,6.90883-7.36491,8.43043-12.13957,1.52161-4.77461,2.05657-9.79586.34114-13.85157-3.281,1.41807-9.97943,25.04922-8.77178,25.99114Zm18.40714-38.02051c-.78458,4.48259-7.58239,4.71737-11.33648,3.766-4.02633-1.021-7.04024-5.35827-5.1716-9.60866C935.85393,590.2115,944.45341,592.68845,950.99525,590.69859Zm1.27015-11.95619c-.767,4.382-7.28029,4.7047-11.0792,3.82821-4.44969-1.02572-7.25021-5.5281-5.42888-9.67089C937.12407,578.25532,945.72355,580.73227,952.2654,578.7424Z"/><path id="path33-8" d="M997.683,505.91122c13.293,0,16.482,7.3991,33.11368,6.96628l-11.87251,1.64544c5.772,5.18423,8.47809,9.99516,8.42463,14.36614-5.39765-15.76166-18.97588-17.61437-29.66583-22.97784Z"/></g></svg>