<svg id="b2df6058-298e-468d-a1dc-1637a1cfc155" data-name="a984e3dc-ca9c-4d56-a37e-992987bb6370" xmlns="http://www.w3.org/2000/svg" viewBox="0 0 1750 1000"><defs><style>.b245b6d7-59ac-43ea-ae4e-863e5f14987c{fill:#da0000;}.a772375b-1768-48e5-b12c-d412814fba82{fill:#fff;}.a8b573da-2dda-45f8-a407-8f7288e77a78{fill:#239f40;}.abb95085-b8dd-4526-8d72-42585e9d69ca{fill:#d3a034;}.e7be95cf-8f5c-4e90-9a8c-7540e3d31925{fill:#13bde5;}.ab7f3f53-47a7-4f51-9748-70e06a3645de{fill:#161616;}.bfabc5bf-3bca-4bb9-a30d-c1d16f0c91b7{fill:#e2c377;}</style></defs><rect class="b245b6d7-59ac-43ea-ae4e-863e5f14987c" width="1750" height="1000"/><rect class="a772375b-1768-48e5-b12c-d412814fba82" width="1750" height="714.28583"/><rect class="a8b573da-2dda-45f8-a407-8f7288e77a78" width="1750" height="285.7142"/><path class="abb95085-b8dd-4526-8d72-42585e9d69ca" d="M954.1098,387.30615,911.39624,547.275,909.817,553.1828c-2.68006-.81647-5.432-1.585-8.42316-2.28149l44.29291-165.90046c1.34.43229,2.75189.84052,4.18756,1.22467C951.31,386.60974,952.60223,386.946,954.1098,387.30615Z"/><path class="abb95085-b8dd-4526-8d72-42585e9d69ca" d="M918.19214,371.40781,895.19629,546.72253l-.383,2.882c-2.94323-.50439-5.88647-.88861-8.63842-1.15271l24.02478-183.288A95.402,95.402,0,0,0,918.19214,371.40781Z"/><path class="abb95085-b8dd-4526-8d72-42585e9d69ca" d="M994.81323,387.90659,927.81171,550.32495l-3.49372,8.42957c-.88537-.43225-1.79467-.84052-2.704-1.22486l-.19146-.072c-1.79462-.76849-3.51752-1.489-5.19263-2.08935l68.557-166.04477A100.6956,100.6956,0,0,0,994.81323,387.90659Z"/><path class="abb95085-b8dd-4526-8d72-42585e9d69ca" d="M1057.84253,351.40268a95.79133,95.79133,0,0,0-4.78589,14.69778L938.00537,566.12732c-2.48852-1.58508-5.07294-3.05-7.56152-4.37085l115.147-200.14709a95.98033,95.98033,0,0,0,10.21777-11.40754Z"/><path class="abb95085-b8dd-4526-8d72-42585e9d69ca" d="M1059.54163,432.67191l-106.26941,139.003-2.72785,3.5783a87.64151,87.64151,0,0,0-6.93951-5.35546l112.13183-146.616A93.89144,93.89144,0,0,0,1059.54163,432.67191Z"/><path class="abb95085-b8dd-4526-8d72-42585e9d69ca" d="M1082.82458,464.49274,962.485,585.24384l-.64612.64831c-1.91437-2.06531-3.97217-4.13074-6.14984-6.19592l120.98565-121.42365c.9812,1.0567,1.96216,2.11344,2.99109,3.14612C1080.69482,462.45148,1081.84351,463.55612,1082.82458,464.49274Z"/><path class="abb95085-b8dd-4526-8d72-42585e9d69ca" d="M1117.76111,485.41052,971.626,597.94812c-1.79462-2.4975-3.58936-4.82721-5.31238-6.89252L1108.333,481.64C1111.42,483.05685,1114.55469,484.30573,1117.76111,485.41052Z"/><path class="abb95085-b8dd-4526-8d72-42585e9d69ca" d="M1155.73669,595.88281,990.52985,640.31189c-.6222-2.66589-1.364-5.4035-2.29712-8.45361l165.27838-44.42914c.31116,1.4649.64624,2.85791,1.00513,4.20282S1155.30579,594.46582,1155.73669,595.88281Z"/><path class="abb95085-b8dd-4526-8d72-42585e9d69ca" d="M1175.59778,631.57013l-182.60315,24.1358c-.26331-2.92981-.64612-5.76367-1.17255-8.66968L1169.448,623.54877A94.82959,94.82959,0,0,0,1175.59778,631.57013Z"/><path class="abb95085-b8dd-4526-8d72-42585e9d69ca" d="M1190.50574,485.43451a101.63012,101.63012,0,0,0-11.31836,10.23056L979.76178,611.32495c-1.45966-2.78589-2.89539-5.30755-4.379-7.68512l199.25787-115.46762a101.69091,101.69091,0,0,0,14.66858-4.80316Z"/><path class="abb95085-b8dd-4526-8d72-42585e9d69ca" d="M1152.96082,546.74658a95.68057,95.68057,0,0,0-1.4596,10.08667L986.103,625.44623c-1.029-2.71381-2.15369-5.42755-3.32624-7.97327Z"/><path class="abb95085-b8dd-4526-8d72-42585e9d69ca" d="M1238.77063,665.6485V668.05a98.58337,98.58337,0,0,0-15.09937,3.122h-230.246c.11957-2.78577.11957-5.69165.024-8.69367h230.22223A101.67238,101.67238,0,0,0,1238.77063,665.6485Z"/><path d="M508.8364,687.16656V700.7594h732.32717V687.16656Zm729.93423,11.19123H511.22928v-8.78961h727.54135Z"/><rect class="e7be95cf-8f5c-4e90-9a8c-7540e3d31925" x="511.22928" y="689.56824" width="727.54135" height="8.78973"/><path class="ab7f3f53-47a7-4f51-9748-70e06a3645de" d="M875.00006,666.84912"/><polygon points="774.665 671.172 774.665 671.244 807.663 671.244 808.119 671.197 808.262 671.172 774.665 671.172"/><path d="M1239.08179,663.1748a95.67418,95.67418,0,0,1-14.69226-3.098H993.30566v-.04809c-.024-.62439-.04791-1.22486-.09576-1.80109v-.072l187.53253-24.78436-2.87134-3.36219a95.03335,95.03335,0,0,1-6.00622-7.80511l-.83765-1.22485L991.4151,644.73077v-.04791c-.09564-.60034-.21527-1.2008-.35889-1.77728a.14466.14466,0,0,0-.024-.096l168.17395-45.24573-.7417-2.40155c-.40674-1.39282-.86133-2.83386-1.19641-4.15466-.33484-1.3208-.66993-2.66571-.981-4.0827l-.50256-2.40155L987.56262,629.769v-.02405c-.16754-.60034-.38281-1.17675-.57428-1.72906,0-.024-.024-.0481-.024-.07214l167.19287-69.52558.11963-1.44086a97.60142,97.60142,0,0,1,1.43591-9.84649l.86133-4.41876-174.77832,72.6715v-.024q-.39506-.86445-.78968-1.65711c0-.024-.024-.04809-.04791-.07208l200.1673-115.97186.23913-.26413a94.76983,94.76983,0,0,1,11.05518-9.96658l1.651-1.29679-3.30225-5.71576-1.93835.81656a96.93482,96.93482,0,0,1-14.35742,4.80316h-.33472l-199.904,115.77961c-.024-.024-.024-.0481-.04791-.072l-1.029-1.513c0-.024-.02381-.024-.04779-.04809l149.96386-115.49167-4.23559-1.44089a89.97354,89.97354,0,0,1-9.21277-3.69836l-1.316-.60041L964.878,589.35046c0-.024,0-.024-.024-.048-.4068-.50439-.83764-.96069-1.24432-1.417l-.04779-.0481,122.852-123.27258-1.77075-1.70517-3.13477-3.026c-1.005-1.00864-1.96216-2.04129-2.91943-3.098l-1.69885-1.82523L954.01392,578.25519a11.87253,11.87253,0,0,0-1.41181-1.27271l-.07184-.07214,110.00232-143.92621-.62219-1.32083c-1.316-2.93-2.60828-6.028-3.709-9.174l-1.45984-4.17871L941.81018,568.62494c-.024,0-.024-.024-.04791-.024-.52637-.36017-1.02893-.72046-1.57923-1.05664L1055.52161,367.013v-.33609a98.10254,98.10254,0,0,1,4.64221-14.40945l.78955-1.9213-5.86255-3.21817-1.29224,1.70517a93.18532,93.18532,0,0,1-9.95446,11.11929l-.26331.24009L928.26636,560.65167l-.024-.02386c-.55054-.28833-1.12476-.57648-1.699-.84064-.024,0-.04791-.024-.07171-.024l72.17016-174.90637-4.379.86456c-3.0868.60041-6.26947,1.05671-9.787,1.393H983.04L913.93268,554.576a14.374,14.374,0,0,0-1.79462-.62439c-.0238,0-.07171-.024-.09564-.024l44.939-168.32611-2.39288-.57651c-1.22046-.28811-2.39288-.6004-3.46979-.88855l-.71789-.168c-1.38788-.38433-2.75189-.76855-4.068-1.20077l-2.39288-.76856L899.0011,550.397l-1.8664-.38434a.08766.08766,0,0,1-.07189-.024l23.57031-179.70954-1.19647-.84063a90.659,90.659,0,0,1-7.801-6.0759l-3.35016-2.93-24.62311,187.779h-.11956l-1.86658-.096v-231.92a92.28912,92.28912,0,0,1-3.15869-14.86576l-.28711-2.08935h-6.46094l-.28711,2.08935a92.25546,92.25546,0,0,1-3.15869,14.86576V548.11554l-1.86639.096h-.11957l-24.62317-187.7789-3.35,2.93a90.682,90.682,0,0,1-7.801,6.07593l-1.19647.84067,23.57025,179.70953a.08758.08758,0,0,1-.07172.024l-1.86658.38434L806.06024,381.99878l-2.393.76855c-1.31623.43229-2.68006.81644-4.068,1.20078l-.71789.168c-1.07678.28811-2.24933.6004-3.46979.88855l-2.39288.57651,44.939,168.32614c-.0238,0-.07171.024-.09564.024a14.3772,14.3772,0,0,0-1.79462.62439L766.96,387.11417h-1.43573c-3.51764-.33628-6.70025-.79255-9.787-1.393l-4.379-.86456L823.52856,559.763c-.024,0-.04791.024-.07189.024-.57428.26416-1.14856.55237-1.69892.84063l-.024.02387L706.41925,360.1925l-.26324-.24008a93.18841,93.18841,0,0,1-9.95459-11.11929L694.9093,347.128l-5.86261,3.21817.78967,1.9213a98.12662,98.12662,0,0,1,4.64228,14.40945v.33609l115.3385,200.53122c-.55054.33624-1.05292.69659-1.57941,1.05664-.024,0-.024.024-.04791.024L693.25824,418.31055l-1.45966,4.17871c-1.10077,3.14605-2.39288,6.24405-3.7091,9.174l-.622,1.32083,110.0022,143.92624-.07172.07214a11.86841,11.86841,0,0,0-1.41187,1.27271L673.11,454.91049l-1.699,1.82526c-.95721,1.0567-1.91437,2.08935-2.91943,3.098l-3.13471,3.026-1.77069,1.70517L786.43835,587.83752l-.04791.0481c-.4068.4563-.83746.9126-1.24432,1.417-.02381.02387-.02381.02387-.02381.04791L641.691,478.95026l-1.31622.6004a89.9738,89.9738,0,0,1-9.21265,3.69836l-4.23547,1.44089,149.964,115.49173c-.024.024-.04791.024-.04791.0481l-1.029,1.513c-.024.02392-.024.048-.04791.072L575.86194,486.03491h-.335a96.92714,96.92714,0,0,1-14.35749-4.80316l-1.93823-.81656L555.929,486.131l1.65112,1.29678a94.74906,94.74906,0,0,1,11.05523,9.96659l.23932.26413L769.04175,613.63031c-.024.024-.04791.0481-.04791.07208q-.39479.79239-.78956,1.65711v.024L593.4259,542.712l.86158,4.41876a97.61782,97.61782,0,0,1,1.43566,9.84649l.11957,1.44086,167.19293,69.52557c0,.024-.024.0481-.024.07215-.19135.55237-.4068,1.12866-.57428,1.72906v.024l-168.2218-45.2456-.50257,2.40155c-.31091,1.417-.646,2.76184-.981,4.0827s-.78967,2.76184-1.19647,4.15466l-.74176,2.40155,168.174,45.24573a.14465.14465,0,0,0-.024.096c-.14356.57647-.26331,1.17688-.359,1.77728v.048L578.97266,620.97913l-.83747,1.22485a95.04525,95.04525,0,0,1-6.00622,7.80511l-2.87158,3.36219,187.53271,24.7843v.072c-.04791.57642-.07172,1.17676-.09564,1.80109v.04809H525.61078a95.67985,95.67985,0,0,1-14.69254,3.098l-2.08178.28815v6.60437l2.10577.26428a95.00453,95.00453,0,0,1,14.81216,3.122h698.49134a95.0005,95.0005,0,0,1,14.812-3.122l2.10583-.26428V663.463ZM526.32861,671.172a98.58979,98.58979,0,0,0-15.09927-3.122V665.6485a101.68417,101.68417,0,0,0,15.09927-3.17011H756.55084c-.09576,3.002-.09576,5.9079.024,8.69367Zm230.67682-15.46613L574.40228,631.57013a94.79263,94.79263,0,0,0,6.14966-8.0213l177.626,23.48742c-.52643,2.906-.9093,5.73987-1.17249,8.66968Zm396.50568-68.27667c.31116,1.4649.64624,2.85791,1.00513,4.20282.35876,1.34491.78955,2.83386,1.22045,4.25079l-165.2069,44.429c-.6222-2.66589-1.364-5.4035-2.29712-8.45361Zm-.55029-40.68262a95.68057,95.68057,0,0,0-1.4596,10.08667L986.103,625.44629c-1.029-2.71381-2.15369-5.42755-3.32624-7.97327Zm21.6798-58.57437a101.69091,101.69091,0,0,0,14.66858-4.80316l1.19642,2.06546a101.6253,101.6253,0,0,0-11.31836,10.23056L979.76178,611.32495c-1.45966-2.78589-2.89539-5.30755-4.379-7.68512ZM1108.333,481.64c3.08679,1.41684,6.22156,2.66572,9.42785,3.77048l-146.135,112.53763c-1.79461-2.4975-3.58935-4.82721-5.31237-6.89252Zm-31.65833-23.3674c.9812,1.05671,1.96216,2.11344,2.99109,3.14612s2.17761,2.13727,3.15857,3.074L962.48486,585.24384l-.64611.64831c-1.91437-2.06531-3.97217-4.13074-6.14985-6.19592Zm-20.938-34.99078a93.92339,93.92339,0,0,0,3.80481,9.39008L953.27209,571.675l-2.72784,3.57831a87.64163,87.64163,0,0,0-6.93951-5.35547Zm-10.14587-61.67249a95.97945,95.97945,0,0,0,10.21777-11.40753l2.03394,1.20078a95.79133,95.79133,0,0,0-4.78589,14.69778l-115.05127,200.027c-2.48852-1.58508-5.07294-3.05-7.56152-4.37085ZM984.787,389.32358a100.687,100.687,0,0,0,10.0263-1.417L927.81171,550.325l-3.49372,8.42957c-.88537-.43225-1.79467-.84052-2.704-1.22486l-.19146-.072c-1.79462-.76849-3.51752-1.489-5.19263-2.08929Zm-39.10028-4.32282c1.34.43228,2.75189.84052,4.18756,1.22467,1.43567.38431,2.728.72058,4.23547,1.08075L911.39624,547.275,909.817,553.1828c-2.68006-.81647-5.432-1.585-8.42316-2.28149Zm-35.48694-19.837a95.39636,95.39636,0,0,0,7.99237,6.244L895.19629,546.72253l-.383,2.882c-2.94323-.50439-5.88647-.88861-8.63842-1.15271ZM870.597,316.84418a96.7951,96.7951,0,0,0,3.23053-15.226h2.345a96.78219,96.78219,0,0,0,3.23034,15.226v231.1513c-1.45965-.04809-2.91925-.07214-4.40283-.07214s-2.94336.024-4.403.07214ZM831.8078,371.40784a95.388,95.388,0,0,0,7.99237-6.244l24.0249,183.288c-2.75171.2641-5.69513.64832-8.63842,1.15271l-.38282-2.882Zm-35.91742,15.89831c1.50757-.36014,2.79968-.69641,4.23535-1.08075,1.43579-.38421,2.8476-.79242,4.18756-1.22467l44.293,165.90052c-2.99115.69659-5.74292,1.46508-8.42315,2.28149l-1.57923-5.90778Zm26.2981,163.01874L755.18689,387.90652a100.68427,100.68427,0,0,0,10.02631,1.417l68.55688,166.04471c-1.67493.60034-3.39789,1.3208-5.19263,2.08935l-.19146.072c-.90931.38434-1.81849.79254-2.704,1.22486ZM696.9433,366.10034a95.79764,95.79764,0,0,0-4.78583-14.69778l2.03412-1.20078a95.95422,95.95422,0,0,0,10.21765,11.40753l115.147,200.1471c-2.48852,1.3208-5.073,2.78577-7.56152,4.37085Zm99.78448,205.57453-106.26922-139.003a93.91969,93.91969,0,0,0,3.80462-9.39008l112.1319,146.616a87.63974,87.63974,0,0,0-6.93939,5.35547ZM667.17548,464.49274c.9812-.93665,2.1297-2.04129,3.15869-3.074,1.029-1.03277,2.01013-2.08947,2.99115-3.14612L794.311,579.69623c-2.17749,2.06531-4.23535,4.13074-6.14984,6.19592l-.646-.64831ZM632.239,485.41046c3.20636-1.10477,6.34119-2.35364,9.4281-3.77048L783.6864,591.05566c-1.72284,2.06531-3.51752,4.3949-5.31219,6.89252Zm-61.426,10.2547a101.64365,101.64365,0,0,0-11.31855-10.23056l1.19648-2.06546a101.7028,101.7028,0,0,0,14.66852,4.80316l199.258,115.46759c-1.48358,2.37757-2.91943,4.89911-4.379,7.68512Zm27.68591,61.16815a95.611,95.611,0,0,0-1.45966-10.08667l170.184,70.72638c-1.17255,2.54572-2.29712,5.25946-3.32605,7.97327ZM594.26349,595.883c.43066-1.417.86145-2.906,1.22046-4.2508.35888-1.34491.69391-2.73785,1.005-4.20276l165.27851,44.429c-.93323,3.05-1.67511,5.78772-2.29725,8.45361ZM975.335,671.14819v.024H774.66522v-.024c-.04791-1.39282-.09576-2.59356-.09576-3.79437,0-1.60913.024-3.21814.09576-4.82721v-.04809c.07172-1.489.16736-2.92981.31092-4.3949v-.04791c.21545-2.834.5982-5.71576,1.10076-8.59772v-.0481c.26325-1.4649.55036-2.92981.90937-4.37091v-.024c.64612-2.97791,1.388-5.78772,2.2254-8.38147,0-.024,0-.024.024-.04792a42.99467,42.99467,0,0,1,1.43567-4.17889v-.02387a78.09339,78.09339,0,0,1,3.23053-7.90124c0-.024.024-.024.024-.04791.59821-1.369,1.29212-2.68976,1.96222-4.01075,0-.024.02381-.024.02381-.048,1.24432-2.4256,2.65625-4.89929,4.3551-7.589,0-.024.024-.024.024-.048.78968-1.27289,1.60322-2.4737,2.46479-3.6745,0-.024.0238-.024.0238-.0481,1.723-2.44946,3.49371-4.755,5.24048-6.86841.024-.024.024-.024.024-.04809.93322-1.10468,1.86657-2.18537,2.96716-3.29016v-.024a77.73149,77.73149,0,0,1,6.102-6.148c.0238-.02387.0238-.02387.04779-.02387,1.07678-1.05664,2.15369-1.99334,3.27826-2.97808.024,0,.024,0,.04791-.02387,2.15369-1.80109,4.45081-3.57843,6.86762-5.25946.024,0,.024-.024.04791-.024,1.22046-.86456,2.41687-1.68115,3.63715-2.4256,0-.024,0-.024.024-.024,2.24933-1.46491,4.69013-2.882,7.46588-4.37091.024,0,.024-.024.04792-.024,1.316-.64832,2.65612-1.34491,3.996-1.96912.024,0,.024-.024.04791-.024.95722-.4563,1.89038-.86469,2.8476-1.27289,1.72284-.74445,3.4458-1.393,5.16864-2.04132.024,0,.024,0,.04791-.024,1.38788-.50439,2.77588-.96069,4.18762-1.393.024-.024.024-.024.04791-.024a83.06553,83.06553,0,0,1,8.30335-2.23352.088.088,0,0,0,.07184-.024c1.388-.31219,2.77569-.60034,4.30725-.86456h.024c2.87158-.50421,5.64727-.86457,8.51873-1.12866h.04792c1.45965-.14411,2.91925-.24024,4.40283-.28815h.04791c1.45966-.07208,2.94324-.12018,4.35516-.12018,1.41169,0,2.89539.0481,4.35511.12018h.04779c1.48358.04791,2.94336.144,4.403.28815h.04779c2.87158.26409,5.6474.62438,8.51892,1.12866h.02381c1.53155.2641,2.91943.55237,4.30737.86456a.08707.08707,0,0,0,.07172.024,83.0687,83.0687,0,0,1,8.30352,2.23352c.02381,0,.02381,0,.0478.024,1.41186.43226,2.7998.88862,4.18762,1.393.024.024.024.024.04791.024,1.72284.64831,3.4458,1.29681,5.16864,2.04132.95721.40826,1.89044.81659,2.8476,1.27289.024,0,.024.024.04791.024,1.34.62427,2.68005,1.3208,3.996,1.96912.024,0,.024.024.04791.024,2.7757,1.489,5.21649,2.90594,7.46588,4.37091.024,0,.024,0,.024.024,1.22046.74445,2.41687,1.561,3.63727,2.4256.0238,0,.0238.024.04779.024,2.41687,1.681,4.71411,3.45825,6.86761,5.25946.024.02387.024.02387.04792.02387,1.12457.98474,2.20147,1.92138,3.27826,2.97808.024,0,.024,0,.04791.02387a77.74024,77.74024,0,0,1,6.10193,6.148v.024c1.10077,1.10473,2.03393,2.18554,2.96716,3.29016,0,.024,0,.024.024.04809,1.74676,2.11341,3.51751,4.41895,5.24048,6.86841,0,.024.024.024.024.0481.86145,1.2008,1.67511,2.40155,2.4646,3.6745,0,.02392.024.02392.024.048,1.699,2.68976,3.11078,5.16345,4.3551,7.589,0,.02393.024.02393.024.048.66992,1.321,1.364,2.64185,1.96222,4.01075,0,.02386.024.02386.024.04791a78.127,78.127,0,0,1,3.23041,7.90124v.02387a42.99467,42.99467,0,0,1,1.43567,4.17889c.024.02387.024.02387.024.04792.83764,2.59375,1.57941,5.4035,2.2254,8.38147v.024c.359,1.441.64612,2.90595.90936,4.37091v.0481c.50257,2.882.88538,5.76367,1.10077,8.59772v.04791c.14356,1.46509.23926,2.90594.3111,4.3949v.04809c.07172,1.609.09564,3.21808.09564,4.82721-.00067,1.20062-.04858,2.40143-.09631,3.79419Zm15.69751-.024v.04809H977.72784v-.12c.04779-1.24884.09565-2.4737.09565-3.69837,0-1.63312-.024-3.29028-.09565-4.87524v-.0481c-.0719-1.561-.16754-3.098-.31109-4.611v-.0481c-.23932-2.83386-.62213-5.78772-1.14856-8.69366v-.072c-.26331-1.537-.55054-3.074-.90936-4.563v-.0481c-.67011-2.9779-1.43586-5.81176-2.24933-8.45343-.024-.024-.024-.024-.024-.04809-.47864-1.489-.95721-2.95386-1.50757-4.37085,0-.024,0-.024-.024-.048a79.64542,79.64542,0,0,0-3.27826-7.97326v-.024c-.64612-1.417-1.34-2.83386-2.0578-4.22674,0-.024-.024-.024-.024-.0481-1.24433-2.44946-2.704-4.94721-4.42682-7.68494,0-.024-.024-.024-.024-.04809-.81366-1.29694-1.67511-2.59375-2.56042-3.86652,0-.024-.024-.024-.024-.04809-1.77069-2.4737-3.5415-4.80317-5.31238-6.94056l-.0238-.024c-.95721-1.15271-1.96222-2.30542-3.08691-3.45826l-.04779-.048a83.34,83.34,0,0,0-6.12586-6.22009h-.024c-1.12475-1.08081-2.29724-2.11341-3.49371-3.098-.024-.024-.024-.024-.04791-.024-2.15351-1.8493-4.47473-3.60236-6.91541-5.35547-.04791-.024-.0719-.0481-.11975-.07214-1.2442-.86457-2.48852-1.72913-3.75671-2.4975-.024,0-.024-.024-.04791-.024-2.24933-1.4649-4.73792-2.90594-7.53772-4.41894-.024,0-.024-.024-.0478-.024-1.388-.69641-2.77587-1.39282-4.16381-2.04132-.02381,0-.04779-.024-.07172-.024-.95721-.48034-1.91437-.88861-2.87158-1.29675-1.72284-.74445-3.49372-1.417-5.24048-2.06525-.024-.024-.024-.024-.04791-.024-1.45966-.52844-2.89539-1.03265-4.379-1.489-.024,0-.024,0-.04791-.024-2.96717-.93664-5.74305-1.68115-8.4231-2.25744h-.0238c-1.43579-.33625-2.91944-.62439-4.52259-.88861h-.04791c-2.91925-.52845-5.719-.91266-8.59051-1.17676h-.04792c-1.53155-.14411-3.08679-.24024-4.61828-.28815h-.07184c-1.41181-.07214-2.89539-.12018-4.40283-.12018s-2.99115.0481-4.403.12018H870.525c-1.53155.04791-3.08691.144-4.61846.28815h-.0478c-2.87158.2641-5.67114.64831-8.59063,1.17676h-.04779c-1.60334.2641-3.08692.55236-4.52259.88861h-.024c-2.68006.57641-5.45594,1.3208-8.42316,2.25744-.024.024-.024.024-.04779.024-1.48358.4563-2.91943.96051-4.379,1.489-.024,0-.024,0-.04791.024-1.74677.64832-3.51752,1.3208-5.24048,2.06525-.957.40826-1.91437.81647-2.87158,1.29675-.02381,0-.04779.024-.07172.024-1.38788.64844-2.77588,1.34491-4.16369,2.04132-.024,0-.024.024-.04792.024-2.79968,1.513-5.28839,2.954-7.53772,4.41894-.0238,0-.0238.024-.04779.024-1.26831.76849-2.51257,1.633-3.75689,2.4975-.04792.024-.0719.04809-.11957.07214-2.4408,1.75305-4.76184,3.50623-6.91559,5.35547-.024,0-.024,0-.04791.024-1.19648.98455-2.369,2.01727-3.49359,3.098h-.024a83.29182,83.29182,0,0,0-6.12586,6.22009l-.04791.048c-1.12457,1.15284-2.1297,2.30555-3.08679,3.45826l-.024.024c-1.77069,2.13745-3.54144,4.46692-5.31237,6.94056,0,.024-.02381.024-.02381.04809-.88556,1.27271-1.74689,2.56958-2.56042,3.86652,0,.024-.024.024-.024.04809-1.723,2.73773-3.18268,5.23542-4.427,7.68494,0,.024-.02381.024-.02381.0481-.718,1.39288-1.41186,2.80981-2.058,4.22674v.024a79.67962,79.67962,0,0,0-3.27826,7.97326c-.024.02393-.024.02393-.024.048-.55035,1.417-1.029,2.882-1.50738,4.37085,0,.024,0,.024-.024.04809-.81366,2.64167-1.5794,5.47553-2.24933,8.45343v.0481c-.359,1.489-.64611,3.026-.90936,4.563v.072c-.52655,2.90594-.9093,5.85986-1.14868,8.69366v.0481c-.14356,1.513-.23926,3.05011-.31091,4.611v.0481c-.07184,1.585-.09577,3.242-.09577,4.87524,0,1.22467.04791,2.44946.09577,3.69837v.12h-13.304v-.04809c-.11975-2.76172-.11975-5.66773-.024-8.59754v-.04809l.04779-.72046c.024-.52845.04792-1.05671.09577-1.561v-.12c.024-.5763.04779-1.10474.09564-1.585v-.07215l.07184-.84051c.0238-.52845.07171-1.03266.14355-1.53705v-.024c.26325-2.92981.622-5.73981,1.12458-8.62176v-.072c.11963-.76849.26324-1.489.4068-2.23345v-.0481c.09576-.55231.21545-1.08069.359-1.609v-.024c.14356-.86456.335-1.68115.52637-2.47351v-.04809c.59821-2.71375,1.34021-5.4516,2.24933-8.35736,0-.024,0-.024.024-.0481.21545-.79254.40686-1.417.62219-2.01739,0-.024.024-.04792.024-.072.16754-.55249.335-1.03265.50256-1.537,0-.024.0238-.0481.0238-.07209.2873-.81646.57441-1.633.88556-2.42553v-.024c1.005-2.71381,2.10559-5.37946,3.25434-7.90125,0-.02386.024-.02386.024-.048.3111-.67255.59821-1.34491.93311-1.99335.024-.024.024-.072.04791-.096.23926-.52844.47864-.98474.69391-1.46508.024-.02387.04791-.04792.04791-.072q.5745-1.15275,1.14856-2.23353c.024,0,.024,0,.024-.024,1.43585-2.76184,2.84759-5.23541,4.35516-7.613,0-.02405.024-.02405.024-.04809.38281-.60035.74176-1.20081,1.12457-1.7771l.024-.0481.93323-1.369.04791-.072c.47858-.72046.957-1.4649,1.45965-2.13745,0-.024.024-.024.024-.0481,1.74677-2.47351,3.51752-4.77911,5.24048-6.84448.024-.024.024-.024.024-.04809.47845-.55237.9331-1.12867,1.38781-1.633l.04792-.04809c.38281-.4563.74176-.86457,1.10077-1.29676l.04779-.04809c.57434-.62427,1.12475-1.24866,1.723-1.84912v-.024c1.89032-2.06525,3.94824-4.1308,6.10193-6.148.024-.024.024-.024.04791-.024.50244-.48035,1.005-.96069,1.55536-1.393l.07184-.072c.4068-.40832.83746-.76849,1.26812-1.12878.718-.64832,1.31623-1.15271,1.96222-1.68115l.024-.02393c2.32117-1.94525,4.64227-3.72253,6.86762-5.28351l.04791-.04809c.5982-.43225,1.17254-.81647,1.72284-1.17676.024-.024.0719-.0481.09576-.07214.50238-.36017.93311-.64832,1.364-.93647,0-.024,0-.024.02381-.024.78967-.5044,1.43579-.9607,2.15369-1.369,0-.024,0-.024.024-.024,2.4646-1.561,4.9773-3.002,7.48981-4.32281.024,0,.024-.024.04779-.024.718-.40827,1.41186-.72046,2.10577-1.08069.024-.024.04792-.024.0719-.048.50238-.28815,1.005-.5044,1.50757-.74445.024,0,.024-.024.04779-.024.718-.36029,1.41187-.69659,2.10578-.98474h.024c.83765-.40826,1.65113-.79242,2.46479-1.12866l.26312-.09613c1.79461-.79242,3.58935-1.489,5.28839-2.11322.0238,0,.0238-.024.04779-.024.74182-.28814,1.48358-.55249,2.2016-.76849.0238-.024.07171-.024.09564-.0481.57422-.24011,1.07678-.38421,1.60321-.55236.81366-.28815,1.50757-.5044,2.2254-.72046h.024c2.65613-.84064,5.384-1.58509,8.35132-2.25745h.04791c.67011-.16815,1.38788-.33624,2.0578-.48035l.335-.07208,1.65113-.31219.07171-.02393c.718-.144,1.43579-.28815,2.17768-.40832h.024c2.91925-.48017,5.79084-.86457,8.56653-1.10462h.04755c.78967-.09613,1.57941-.16815,2.32117-.24023h.19134l1.65112-.096,2.27332-.12h.0719c1.43567-.04809,2.8714-.07214,4.33118-.07214,1.45965,0,2.89538.024,4.33117.07214h.07172l2.27331.12,1.65113.096h.19146c.74183.07214,1.53138.1441,2.32105.24023h.04791c2.7757.24011,5.64728.62439,8.56665,1.10462h.02356c.74176.12017,1.45978.26428,2.17767.40832l.07172.02393,1.65112.31219.335.07208c.6701.144,1.388.3122,2.0578.48035h.04791c2.96716.67236,5.69513,1.41687,8.35132,2.25745h.024c.7179.21606,1.41187.43225,2.22541.72046.52655.16815,1.029.31219,1.60321.55236.024.024.0719.024.09576.0481.7179.21606,1.45966.48035,2.20148.76849.024,0,.024.024.04791.024,1.69891.62427,3.49359,1.32086,5.28827,2.11322l.26331.09613c.81347.33624,1.62713.72046,2.4646,1.12866h.024c.69391.28815,1.38788.62439,2.10578.98474.024,0,.024.024.04791.024.50244.24011,1.005.4563,1.50757.74445.0238.02392.04779.02392.07171.048.69391.36029,1.388.67255,2.10578,1.08069.024,0,.024.024.04791.024,2.51257,1.3208,5.02509,2.76184,7.48981,4.32281.0238,0,.0238,0,.0238.024.718.40826,1.364.86456,2.15369,1.369.024,0,.024,0,.024.024.43067.28815.86145.57642,1.364.93647.024.024.07171.04809.09564.07214.55035.36029,1.12476.74444,1.723,1.17676l.04779.04809c2.22541,1.561,4.54657,3.33826,6.86762,5.28351l.024.02393c.64612.52844,1.24433,1.03283,1.96222,1.68115.43067.36029.86145.72046,1.26831,1.12878l.07172.072c.55035.43226,1.05292.91266,1.55542,1.393.024,0,.024,0,.04779.024,2.15369,2.01727,4.21155,4.0827,6.102,6.148v.024c.59821.60034,1.14856,1.22485,1.72284,1.84912l.04791.04809c.35889.43225.7179.84052,1.10065,1.29676l.04791.04809c.45465.5044.90937,1.08069,1.388,1.633,0,.024,0,.024.024.04809,1.72284,2.06531,3.49359,4.37085,5.24048,6.84448,0,.024.0238.024.0238.0481.50257.67255.9812,1.417,1.45978,2.13745l.04779.072.93323,1.369.024.0481c.38281.57641.74176,1.17675,1.12457,1.7771,0,.024.024.024.024.04809,1.50756,2.37757,2.91943,4.85108,4.35516,7.613,0,.024,0,.024.024.024q.57431,1.08069,1.14856,2.23353c0,.024.024.04809.04791.072.21545.48034.45465.93664.69391,1.46508.024.024.024.072.04791.096.335.6485.62219,1.3208.93323,1.99335,0,.024.024.024.024.048,1.14856,2.52179,2.24933,5.18744,3.25434,7.90125v.024c.31109.79242.5982,1.609.88537,2.42553,0,.024.024.0481.024.07209.16754.50439.335.98455.50244,1.537,0,.024.024.048.024.072.21545.60034.40686,1.22485.62213,2.01739.024.024.024.024.024.0481.90936,2.90582,1.65112,5.64361,2.24932,8.35736v.04809c.19147.79242.38282,1.609.52637,2.47351v.024c.14356.52832.26331,1.0567.359,1.609v.0481c.14356.74444.28711,1.4649.4068,2.23345v.072c.50256,2.882.86145,5.69183,1.12476,8.62176v.024c.07171.50439.11956,1.0086.14355,1.53705l.07172.84051v.07215c.04791.48016.0719,1.0086.09576,1.585v.12c.04779.5044.07172,1.03266.09564,1.561l.04792.72046v.04809c.09521,2.92975.09521,5.83569-.02442,8.59741Zm.78967-24.08771,177.626-23.48749a94.8287,94.8287,0,0,0,6.14978,8.0213L992.99463,655.70593c-.26331-2.92981-.64612-5.76367-1.17255-8.66968Zm246.94849,21.01379a98.58337,98.58337,0,0,0-15.09937,3.122h-230.246c.11957-2.78577.11957-5.69165.024-8.69366h230.22223a101.68317,101.68317,0,0,0,15.09936,3.1701Z"/><path class="abb95085-b8dd-4526-8d72-42585e9d69ca" d="M879.403,316.84415V547.99548c-1.45965-.04809-2.91925-.07214-4.40283-.07214s-2.94336.024-4.403.07214V316.84415a96.79736,96.79736,0,0,0,3.23053-15.226h2.345A96.78219,96.78219,0,0,0,879.403,316.84415Z"/><path class="abb95085-b8dd-4526-8d72-42585e9d69ca" d="M795.89038,387.30615,838.60394,547.275l1.57929,5.90778c2.68005-.81647,5.432-1.585,8.42309-2.28149L804.31348,385.00082c-1.34.43229-2.7519.84052-4.18763,1.22467C798.69019,386.60974,797.39783,386.946,795.89038,387.30615Z"/><path class="abb95085-b8dd-4526-8d72-42585e9d69ca" d="M831.808,371.40781,854.80389,546.7226l.383,2.88195c2.94324-.50439,5.88647-.88861,8.63843-1.15271l-24.025-183.28811A95.3775,95.3775,0,0,1,831.808,371.40781Z"/><path class="abb95085-b8dd-4526-8d72-42585e9d69ca" d="M755.18683,387.90659l67.00152,162.41836,3.49372,8.42957c.88537-.43225,1.79461-.84052,2.704-1.22486l.19146-.072c1.79462-.76849,3.51752-1.489,5.19257-2.08935l-68.557-166.04477A100.69732,100.69732,0,0,1,755.18683,387.90659Z"/><path class="abb95085-b8dd-4526-8d72-42585e9d69ca" d="M692.15753,351.40268a95.79764,95.79764,0,0,1,4.78583,14.69778L811.99463,566.12732c2.48852-1.58508,5.07294-3.05,7.56152-4.37085L704.4093,361.60934a95.97274,95.97274,0,0,1-10.21777-11.40753Z"/><path class="abb95085-b8dd-4526-8d72-42585e9d69ca" d="M690.45856,432.67191l106.26935,139.003,2.72784,3.5783a87.64151,87.64151,0,0,1,6.93951-5.35546l-112.13189-146.616A93.92152,93.92152,0,0,1,690.45856,432.67191Z"/><path class="abb95085-b8dd-4526-8d72-42585e9d69ca" d="M667.17554,464.49274l120.33954,120.7511.64611.64831c1.91437-2.06531,3.97217-4.13074,6.14985-6.19592L673.32538,458.27258c-.9812,1.0567-1.96222,2.11344-2.99115,3.14612C669.30524,462.45148,668.15662,463.55612,667.17554,464.49274Z"/><path class="abb95085-b8dd-4526-8d72-42585e9d69ca" d="M632.23907,485.41052l146.13508,112.5376c1.79461-2.4975,3.58935-4.82721,5.31237-6.89252L641.66705,481.64C638.5802,483.05685,635.4455,484.30573,632.23907,485.41052Z"/><path class="abb95085-b8dd-4526-8d72-42585e9d69ca" d="M594.26343,595.88281l165.20685,44.42908c.62213-2.66589,1.364-5.4035,2.29712-8.45361L596.489,587.42926c-.31109,1.46491-.64611,2.85791-1.00512,4.20282C595.125,592.97687,594.69427,594.46582,594.26343,595.88281Z"/><path class="abb95085-b8dd-4526-8d72-42585e9d69ca" d="M574.40228,631.57013l182.60321,24.1358c.26331-2.92981.64612-5.76367,1.17255-8.66968L580.55212,623.54883A94.79468,94.79468,0,0,1,574.40228,631.57013Z"/><path class="abb95085-b8dd-4526-8d72-42585e9d69ca" d="M559.49445,485.43451a101.62472,101.62472,0,0,1,11.31842,10.23056L770.23834,611.32495c1.45966-2.78589,2.89539-5.30755,4.379-7.68512L575.3595,488.17224a101.7028,101.7028,0,0,1-14.66852-4.80316Z"/><path class="abb95085-b8dd-4526-8d72-42585e9d69ca" d="M597.03931,546.74658a95.71466,95.71466,0,0,1,1.45965,10.08667l165.39813,68.613c1.029-2.71381,2.15369-5.42755,3.32618-7.97327Z"/><path class="abb95085-b8dd-4526-8d72-42585e9d69ca" d="M511.22946,665.6485V668.05a98.59016,98.59016,0,0,1,15.09928,3.122h230.246c-.11957-2.78577-.11957-5.69165-.024-8.69367h-230.222A101.67711,101.67711,0,0,1,511.22946,665.6485Z"/><path class="abb95085-b8dd-4526-8d72-42585e9d69ca" d="M991.03241,671.124v.0481H977.72784v-.12c.04779-1.24884.09565-2.47369.09565-3.69836,0-1.63312-.024-3.29028-.09565-4.87524v-.0481c-.0719-1.561-.16754-3.098-.31109-4.611v-.0481c-.23932-2.83386-.62213-5.78772-1.14856-8.69366v-.072c-.26331-1.53705-.55054-3.074-.90936-4.563v-.0481c-.67011-2.9779-1.43586-5.81177-2.24933-8.45343-.024-.024-.024-.024-.024-.04809-.47864-1.489-.95721-2.95386-1.50757-4.37085,0-.024,0-.024-.024-.04792a79.64542,79.64542,0,0,0-3.27826-7.97326v-.024c-.64612-1.417-1.34-2.83386-2.0578-4.22675,0-.024-.024-.024-.024-.04809-1.24433-2.44946-2.704-4.94721-4.42682-7.685,0-.024-.024-.024-.024-.04809-.81366-1.29694-1.67511-2.59375-2.56042-3.86652,0-.024-.024-.024-.024-.0481-1.77069-2.47369-3.5415-4.80316-5.31238-6.94055l-.0238-.024c-.95721-1.15271-1.96222-2.30542-3.08691-3.45825l-.04779-.048a83.33809,83.33809,0,0,0-6.12586-6.22009h-.024c-1.12475-1.08075-2.29724-2.11341-3.49371-3.098-.024-.024-.024-.024-.04791-.024-2.15351-1.84931-4.47473-3.60236-6.91541-5.35547-.04791-.024-.0719-.0481-.11975-.07215-1.2442-.86456-2.48852-1.72912-3.75671-2.49749-.024,0-.024-.024-.04791-.024-2.24933-1.4649-4.73792-2.90594-7.53772-4.41894-.024,0-.024-.024-.0478-.024-1.388-.69641-2.77587-1.39282-4.16381-2.04132-.02381,0-.04779-.024-.07172-.024-.95721-.48035-1.91437-.88861-2.87158-1.29675-1.72284-.74445-3.49372-1.417-5.24048-2.06525-.024-.024-.024-.024-.04791-.024-1.45966-.52844-2.89539-1.03265-4.379-1.489-.024,0-.024,0-.04791-.024-2.96717-.93664-5.74305-1.68115-8.4231-2.25744h-.0238c-1.43579-.33625-2.91944-.62439-4.52259-.88862h-.04791c-2.91925-.52844-5.719-.91265-8.59051-1.17675h-.04792c-1.53155-.144-3.08679-.24024-4.61828-.28815h-.07184c-1.41181-.07214-2.89539-.12018-4.40283-.12018s-2.99115.0481-4.403.12018H870.525c-1.53155.04791-3.08691.1441-4.61846.28815h-.0478c-2.87158.2641-5.67114.64831-8.59063,1.17675h-.04779c-1.60334.2641-3.08692.55237-4.52259.88862h-.024c-2.68006.57641-5.45594,1.3208-8.42316,2.25744-.024.024-.024.024-.04779.024-1.48358.4563-2.91943.96051-4.379,1.489-.024,0-.024,0-.04791.024-1.74677.64832-3.51752,1.3208-5.24048,2.06525-.957.40826-1.91437.81646-2.87158,1.29675-.02381,0-.04779.024-.07172.024-1.38788.6485-2.77588,1.34491-4.16369,2.04132-.024,0-.024.024-.04792.024-2.79968,1.513-5.28839,2.954-7.53772,4.41894-.0238,0-.0238.024-.04779.024-1.26831.76849-2.51257,1.633-3.75689,2.49749-.04792.024-.0719.0481-.11957.07215-2.4408,1.753-4.76184,3.50622-6.91559,5.35547-.024,0-.024,0-.04791.024-1.19648.98456-2.369,2.01728-3.49359,3.098h-.024a83.29182,83.29182,0,0,0-6.12586,6.22009l-.04791.048c-1.12457,1.15283-2.1297,2.30554-3.08679,3.45825l-.024.024c-1.77069,2.13745-3.54144,4.46692-5.31237,6.94055,0,.024-.02381.024-.02381.0481-.88556,1.2727-1.74689,2.56958-2.56042,3.86652,0,.024-.024.024-.024.04809-1.723,2.73773-3.18268,5.23541-4.427,7.685,0,.024-.02381.024-.02381.04809-.718,1.39289-1.41186,2.80982-2.058,4.22675v.024a79.67962,79.67962,0,0,0-3.27826,7.97326c-.024.02387-.024.02387-.024.04792-.55035,1.417-1.029,2.882-1.50738,4.37085,0,.024,0,.024-.024.04809-.81366,2.64166-1.5794,5.47553-2.24933,8.45343v.0481c-.359,1.489-.64611,3.026-.90936,4.563v.072c-.52655,2.90594-.9093,5.85986-1.14868,8.69366v.0481c-.14356,1.513-.23926,3.05011-.31091,4.611v.0481c-.07184,1.585-.09577,3.242-.09577,4.87524,0,1.22467.04791,2.44946.09577,3.69836v.12h-13.304v-.0481c-.11975-2.76172-.11975-5.66772-.024-8.59753v-.0481l.04779-.72046c.024-.52844.04792-1.0567.09577-1.561v-.12c.024-.57629.04779-1.10473.09564-1.585v-.07214l.07184-.84052c.0238-.52844.07171-1.03265.14355-1.537v-.024c.26325-2.92981.622-5.73981,1.12458-8.6217v-.072c.11963-.76849.26324-1.489.4068-2.23346v-.048c.09576-.55231.21545-1.08069.359-1.609v-.024c.14356-.86457.335-1.68116.52637-2.47352v-.04809c.59821-2.71375,1.34021-5.4516,2.24933-8.35736,0-.024,0-.024.024-.0481.21545-.79254.40686-1.417.62219-2.01739,0-.024.024-.04792.024-.072.16754-.55249.335-1.03266.50256-1.53705,0-.024.0238-.0481.0238-.07209.2873-.81646.57441-1.633.88556-2.42553v-.02405c1.005-2.71381,2.10559-5.37946,3.25434-7.90125,0-.02386.024-.02386.024-.048.3111-.67255.59821-1.34491.93311-1.99335.024-.024.024-.072.04791-.096.23926-.52845.47864-.98475.69391-1.46509.024-.02387.04791-.04791.04791-.072q.5745-1.15275,1.14856-2.23346c.024,0,.024,0,.024-.024,1.43585-2.76184,2.84759-5.23541,4.35516-7.613,0-.024.024-.024.024-.04809.38281-.60034.74176-1.20081,1.12457-1.7771l.024-.0481.93323-1.36895.04791-.072c.47858-.72046.957-1.4649,1.45965-2.13745,0-.024.024-.024.024-.04809,1.74677-2.47351,3.51752-4.77912,5.24048-6.84449.024-.024.024-.024.024-.04809.47845-.55237.9331-1.12866,1.38781-1.633l.04792-.04809c.38281-.4563.74176-.86457,1.10077-1.29676l.04779-.04809c.57434-.62427,1.12475-1.24866,1.723-1.84912v-.024c1.89032-2.06525,3.94824-4.1308,6.10193-6.148.024-.024.024-.024.04791-.024.50244-.48034,1.005-.96069,1.55536-1.393l.07184-.072c.4068-.40833.83746-.7685,1.26812-1.12879.718-.64831,1.31623-1.15271,1.96222-1.68115l.024-.02393c2.32117-1.94525,4.64227-3.72253,6.86762-5.28351l.04791-.04809c.5982-.43225,1.17254-.81647,1.72284-1.17676.024-.024.0719-.04809.09576-.07214.50238-.36017.93311-.64832,1.364-.93646,0-.024,0-.024.02381-.024.78967-.5044,1.43579-.9607,2.15369-1.369,0-.024,0-.024.024-.024,2.4646-1.561,4.9773-3.002,7.48981-4.32281.024,0,.024-.024.04779-.024.718-.40826,1.41186-.72046,2.10577-1.08069.024-.024.04792-.024.0719-.048.50238-.28815,1.005-.5044,1.50757-.74445.024,0,.024-.024.04779-.024.718-.36029,1.41187-.6966,2.10578-.98474h.024c.83765-.40827,1.65113-.79242,2.46479-1.12867l.26312-.09613c1.79461-.79242,3.58935-1.489,5.28839-2.11322.0238,0,.0238-.024.04779-.024.74182-.28815,1.48358-.55249,2.2016-.7685.0238-.024.07171-.024.09564-.04809.57422-.24012,1.07678-.38422,1.60321-.55237.81366-.28815,1.50757-.5044,2.2254-.72046h.024c2.65613-.84064,5.384-1.58508,8.35132-2.25745h.04791c.67011-.16815,1.38788-.33624,2.0578-.48034l.335-.07209,1.65113-.31219.07171-.02393c.718-.144,1.43579-.28814,2.17768-.40832h.024c2.91925-.48017,5.79084-.86457,8.56653-1.10462h.04755c.78967-.09613,1.57941-.16815,2.32117-.24023h.19134l1.65112-.096,2.27332-.12h.0719c1.43567-.0481,2.8714-.07215,4.33118-.07215,1.45965,0,2.89538.024,4.33117.07215h.07172l2.27331.12,1.65113.096h.19146c.74183.07214,1.53138.1441,2.32105.24023h.04791c2.7757.24012,5.64728.62439,8.56665,1.10462h.02356c.74176.12018,1.45978.26428,2.17767.40832l.07172.02393,1.65112.31219.335.07209c.6701.144,1.388.31219,2.0578.48034h.04791c2.96716.67237,5.69513,1.41687,8.35132,2.25745h.024c.7179.21606,1.41187.43225,2.22541.72046.52655.16815,1.029.31219,1.60321.55237.024.024.0719.024.09576.04809.7179.21607,1.45966.48035,2.20148.7685.024,0,.024.024.04791.024,1.69891.62427,3.49359,1.32086,5.28827,2.11322l.26331.09613c.81347.33625,1.62713.72046,2.4646,1.12867h.024c.69391.28814,1.38788.62438,2.10578.98474.024,0,.024.024.04791.024.50244.24012,1.005.4563,1.50757.74445.0238.02392.04779.02392.07171.048.69391.36029,1.388.67255,2.10578,1.08069.024,0,.024.024.04791.024,2.51257,1.3208,5.02509,2.76184,7.48981,4.32281.0238,0,.0238,0,.0238.024.718.40826,1.364.86456,2.15369,1.369.024,0,.024,0,.024.024.43067.28814.86145.57641,1.364.93646.024.024.07171.04809.09564.07214.55035.36029,1.12476.74445,1.723,1.17676l.04779.04809c2.22541,1.561,4.54657,3.33826,6.86762,5.28351l.024.02393c.64612.52844,1.24433,1.03284,1.96222,1.68115.43067.36029.86145.72046,1.26831,1.12879l.07172.072c.55035.43225,1.05292.91266,1.55542,1.393.024,0,.024,0,.04779.024,2.15369,2.01727,4.21155,4.0827,6.102,6.148v.024c.59821.60034,1.14856,1.22485,1.72284,1.84912l.04791.04809c.35889.43226.7179.84052,1.10065,1.29676l.04791.04809c.45465.5044.90937,1.08069,1.388,1.633,0,.024,0,.024.024.04809,1.72284,2.06531,3.49359,4.37085,5.24048,6.84449,0,.024.0238.024.0238.04809.50257.67255.9812,1.417,1.45978,2.13745l.04779.072.93323,1.36895.024.0481c.38281.57641.74176,1.17676,1.12457,1.7771,0,.024.024.024.024.04809,1.50756,2.37757,2.91943,4.85108,4.35516,7.613,0,.024,0,.024.024.024q.57431,1.08069,1.14856,2.23352c0,.024.024.04809.04791.072.21545.48035.45465.93664.69391,1.46509.024.024.024.072.04791.096.335.64849.62219,1.3208.93323,1.99334,0,.024.024.024.024.048,1.14856,2.52179,2.24933,5.18743,3.25434,7.90124v.024c.31109.79242.5982,1.609.88537,2.42554,0,.024.024.04809.024.07208.16754.50439.335.98456.50244,1.53705,0,.024.024.048.024.072.21545.60034.40686,1.22485.62213,2.01739.024.024.024.024.024.0481.90936,2.90582,1.65112,5.64361,2.24932,8.35736v.0481c.19147.79241.38282,1.609.52637,2.47351v.024c.14356.52832.26331,1.0567.359,1.609v.0481c.14356.74444.28711,1.4649.4068,2.23346v.072c.50256,2.882.86145,5.69183,1.12476,8.62176v.024c.07171.5044.11956,1.00861.14355,1.53705l.07172.84051v.07215c.04791.48016.0719,1.0086.09576,1.585v.12c.04779.5044.07172,1.03266.09564,1.561l.04792.72046v.04809C991.1521,665.4563,991.1521,668.36224,991.03241,671.124Z"/><path class="bfabc5bf-3bca-4bb9-a30d-c1d16f0c91b7" d="M975.43054,667.35364c0,1.2008-.04791,2.40155-.09564,3.79437v.024H774.66522v-.024c-.04791-1.39282-.09576-2.59357-.09576-3.79437,0-1.60913.024-3.21814.09576-4.82721v-.0481c.07172-1.489.16736-2.92981.31092-4.39489v-.048c.21545-2.834.5982-5.71576,1.10076-8.59765v-.0481c.26325-1.46491.55036-2.92981.90937-4.37091v-.024c.64612-2.9779,1.388-5.78772,2.2254-8.38147,0-.024,0-.024.024-.04791a42.99375,42.99375,0,0,1,1.43567-4.17889v-.02375a78.09339,78.09339,0,0,1,3.23053-7.90124c0-.024.024-.024.024-.04791.59821-1.369,1.29212-2.68976,1.96222-4.01075,0-.024.02381-.024.02381-.048,1.24432-2.4256,2.65625-4.89929,4.3551-7.58905,0-.024.024-.024.024-.048.78968-1.27289,1.60322-2.4737,2.46479-3.6745,0-.024.0238-.024.0238-.0481,1.723-2.44946,3.49371-4.755,5.24048-6.86841.024-.024.024-.024.024-.04809.93322-1.10468,1.86657-2.18537,2.96716-3.29016v-.024a77.72979,77.72979,0,0,1,6.102-6.148c.0238-.02387.0238-.02387.04779-.02387,1.07678-1.05664,2.15369-1.99334,3.27826-2.97809.024,0,.024,0,.04791-.02386,2.15369-1.80109,4.45081-3.57843,6.86762-5.25946.024,0,.024-.02405.04791-.02405,1.22046-.86456,2.41687-1.68115,3.63715-2.4256,0-.024,0-.024.024-.024,2.24933-1.46491,4.69013-2.882,7.46588-4.37091.024,0,.024-.024.04792-.024,1.316-.64832,2.65612-1.34491,3.996-1.96912.024,0,.024-.024.04791-.024.95722-.45629,1.89038-.86468,2.8476-1.27288,1.72284-.74445,3.4458-1.393,5.16864-2.04132.024,0,.024,0,.04791-.024,1.38788-.5044,2.77588-.96069,4.18762-1.393.024-.024.024-.024.04791-.024a83.06523,83.06523,0,0,1,8.30335-2.23346.088.088,0,0,0,.07184-.024c1.388-.31219,2.77569-.60034,4.30725-.86456h.024c2.87158-.50421,5.64727-.86457,8.51873-1.12866h.04792c1.45965-.14411,2.91925-.24024,4.40283-.28815h.04791c1.45966-.07208,2.94324-.12018,4.35516-.12018,1.41169,0,2.89539.0481,4.35511.12018h.04779c1.48358.04791,2.94336.144,4.403.28815h.04779c2.87158.26409,5.6474.62438,8.51892,1.12866h.02381c1.53155.2641,2.91943.55237,4.30737.86456a.08707.08707,0,0,0,.07172.024,83.0687,83.0687,0,0,1,8.30352,2.23352c.02381,0,.02381,0,.0478.024,1.41186.43226,2.7998.88862,4.18762,1.393.024.024.024.024.04791.024,1.72284.64831,3.4458,1.29681,5.16864,2.04132.95721.40826,1.89044.81659,2.8476,1.27289.024,0,.024.024.04791.024,1.34.62427,2.68005,1.3208,3.996,1.96912.024,0,.024.024.04791.024,2.7757,1.489,5.21649,2.90594,7.46588,4.37091.024,0,.024,0,.024.024,1.22046.74445,2.41687,1.561,3.63727,2.4256.0238,0,.0238.024.04779.024,2.41687,1.681,4.71411,3.45825,6.86761,5.25946.024.02387.024.02387.04792.02387,1.12457.98474,2.20147,1.92138,3.27826,2.97808.024,0,.024,0,.04791.02387a77.74024,77.74024,0,0,1,6.10193,6.148v.024c1.10077,1.10473,2.03393,2.18554,2.96716,3.29016,0,.024,0,.024.024.04809,1.74676,2.11341,3.51751,4.41895,5.24048,6.86841,0,.024.024.024.024.0481.86145,1.2008,1.67511,2.40155,2.4646,3.6745,0,.02392.024.02392.024.048,1.699,2.68976,3.11078,5.16345,4.3551,7.589,0,.02393.024.02393.024.048.66992,1.321,1.364,2.64185,1.96222,4.01075,0,.02386.024.02386.024.04791a78.127,78.127,0,0,1,3.23041,7.90124v.02387a42.99467,42.99467,0,0,1,1.43567,4.17889c.024.02387.024.02387.024.04792.83764,2.59375,1.57941,5.4035,2.2254,8.38147v.024c.359,1.441.64612,2.90595.90936,4.37091v.0481c.50257,2.882.88538,5.76367,1.10077,8.59772v.04791c.14356,1.46509.23926,2.90594.3111,4.3949v.04809C975.40662,664.1355,975.43054,665.74445,975.43054,667.35364Z"/></svg>